<?xml version="1.0" encoding="UTF-8"?>
<svg xmlns="http://www.w3.org/2000/svg" width="800.000" height="600.000" viewBox="0.0 0.0 800.000 600.000" version="1.1">
  <desc>Produce by Acme CAD Converter</desc>
<path d="M361.9 497.86L361.9 588.77Z"
fill="none" stroke="black" stroke-width="0.5"/>
<path d="M491.58 497.86L361.9 497.86"
fill="none" stroke="black" stroke-width="0.5"/>
<path d="M491.58 588.77L491.58 497.86Z"
fill="none" stroke="black" stroke-width="0.5"/>
<path d="M496.93 594.12L491.58 588.77"
fill="none" stroke="black" stroke-width="0.5"/>
<path d="M496.93 594.12L545.05 594.12"
fill="none" stroke="black" stroke-width="0.5"/>
<path d="M545.05 594.12L545.05 551.34Z"
fill="none" stroke="black" stroke-width="0.5"/>
<path d="M545.05 551.34L561.1 551.34"
fill="none" stroke="black" stroke-width="0.5"/>
<path d="M561.1 551.34L561.1 471.12Z"
fill="none" stroke="black" stroke-width="0.5"/>
<path d="M561.1 471.12L545.05 471.12"
fill="none" stroke="black" stroke-width="0.5"/>
<path d="M545.05 471.12L545.05 128.88Z"
fill="none" stroke="black" stroke-width="0.5"/>
<path d="M545.05 128.88L561.1 128.88"
fill="none" stroke="black" stroke-width="0.5"/>
<path d="M561.1 128.88L561.1 48.66Z"
fill="none" stroke="black" stroke-width="0.5"/>
<path d="M561.1 48.66L545.05 48.66"
fill="none" stroke="black" stroke-width="0.5"/>
<path d="M545.05 48.66L545.05 5.88Z"
fill="none" stroke="black" stroke-width="0.5"/>
<path d="M545.05 5.88L496.93 5.88"
fill="none" stroke="black" stroke-width="0.5"/>
<path d="M491.58 11.23L496.93 5.88"
fill="none" stroke="black" stroke-width="0.5"/>
<path d="M491.58 102.14L491.58 11.23Z"
fill="none" stroke="black" stroke-width="0.5"/>
<path d="M361.9 102.14L491.58 102.14"
fill="none" stroke="black" stroke-width="0.5"/>
<path d="M361.9 11.23L361.9 102.14Z"
fill="none" stroke="black" stroke-width="0.5"/>
<path d="M356.55 5.88L361.9 11.23"
fill="none" stroke="black" stroke-width="0.5"/>
<path d="M356.55 5.88L254.95 5.88"
fill="none" stroke="black" stroke-width="0.5"/>
<path d="M254.95 5.88L254.95 48.66Z"
fill="none" stroke="black" stroke-width="0.5"/>
<path d="M254.95 48.66L238.9 48.66"
fill="none" stroke="black" stroke-width="0.5"/>
<path d="M238.9 48.66L238.9 128.88Z"
fill="none" stroke="black" stroke-width="0.5"/>
<path d="M238.9 128.88L254.95 128.88"
fill="none" stroke="black" stroke-width="0.5"/>
<path d="M254.95 128.88L254.95 471.12Z"
fill="none" stroke="black" stroke-width="0.5"/>
<path d="M254.95 471.12L238.9 471.12"
fill="none" stroke="black" stroke-width="0.5"/>
<path d="M238.9 471.12L238.9 551.34Z"
fill="none" stroke="black" stroke-width="0.5"/>
<path d="M238.9 551.34L254.95 551.34"
fill="none" stroke="black" stroke-width="0.5"/>
<path d="M254.95 551.34L254.95 594.12Z"
fill="none" stroke="black" stroke-width="0.5"/>
<path d="M254.95 594.12L356.55 594.12"
fill="none" stroke="black" stroke-width="0.5"/>
<path d="M361.9 588.77L356.55 594.12"
fill="none" stroke="black" stroke-width="0.5"/>
</svg>
