<?xml version="1.0" encoding="UTF-8"?>
<svg xmlns="http://www.w3.org/2000/svg" width="800.000" height="600.000" viewBox="0.0 0.0 800.000 600.000" version="1.1">
  <desc>Produce by Acme CAD Converter</desc>
<path d="M357.41 202.5L357.21 205.82"
fill="none" stroke="black" stroke-width="0.5"/>
<path d="M357.21 205.82L356.62 209.1"
fill="none" stroke="black" stroke-width="0.5"/>
<path d="M356.62 209.1L355.65 212.29"
fill="none" stroke="black" stroke-width="0.5"/>
<path d="M355.65 212.29L354.31 215.34"
fill="none" stroke="black" stroke-width="0.5"/>
<path d="M354.31 215.34L352.61 218.21"
fill="none" stroke="black" stroke-width="0.5"/>
<path d="M352.61 218.21L350.59 220.86"
fill="none" stroke="black" stroke-width="0.5"/>
<path d="M350.59 220.86L348.27 223.25"
fill="none" stroke="black" stroke-width="0.5"/>
<path d="M348.27 223.25L345.68 225.35"
fill="none" stroke="black" stroke-width="0.5"/>
<path d="M345.68 225.35L342.86 227.13"
fill="none" stroke="black" stroke-width="0.5"/>
<path d="M342.86 227.13L339.85 228.56"
fill="none" stroke="black" stroke-width="0.5"/>
<path d="M339.85 228.56L336.7 229.63"
fill="none" stroke="black" stroke-width="0.5"/>
<path d="M336.7 229.63L333.44 230.31"
fill="none" stroke="black" stroke-width="0.5"/>
<path d="M333.44 230.31L330.12 230.61"
fill="none" stroke="black" stroke-width="0.5"/>
<path d="M330.12 230.61L326.79 230.51"
fill="none" stroke="black" stroke-width="0.5"/>
<path d="M326.79 230.51L323.49 230.02"
fill="none" stroke="black" stroke-width="0.5"/>
<path d="M323.49 230.02L320.28 229.14"
fill="none" stroke="black" stroke-width="0.5"/>
<path d="M320.28 229.14L317.19 227.89"
fill="none" stroke="black" stroke-width="0.5"/>
<path d="M317.19 227.89L314.27 226.28"
fill="none" stroke="black" stroke-width="0.5"/>
<path d="M314.27 226.28L311.56 224.34"
fill="none" stroke="black" stroke-width="0.5"/>
<path d="M311.56 224.34L309.1 222.09"
fill="none" stroke="black" stroke-width="0.5"/>
<path d="M309.1 222.09L306.93 219.56"
fill="none" stroke="black" stroke-width="0.5"/>
<path d="M306.93 219.56L305.07 216.8"
fill="none" stroke="black" stroke-width="0.5"/>
<path d="M305.07 216.8L303.54 213.83"
fill="none" stroke="black" stroke-width="0.5"/>
<path d="M303.54 213.83L302.38 210.71"
fill="none" stroke="black" stroke-width="0.5"/>
<path d="M302.38 210.71L301.6 207.47"
fill="none" stroke="black" stroke-width="0.5"/>
<path d="M301.6 207.47L301.21 204.16"
fill="none" stroke="black" stroke-width="0.5"/>
<path d="M301.21 204.16L301.21 200.83Z"
fill="none" stroke="black" stroke-width="0.5"/>
<path d="M301.21 200.83L301.6 197.52"
fill="none" stroke="black" stroke-width="0.5"/>
<path d="M301.6 197.52L302.38 194.28"
fill="none" stroke="black" stroke-width="0.5"/>
<path d="M302.38 194.28L303.54 191.16"
fill="none" stroke="black" stroke-width="0.5"/>
<path d="M303.54 191.16L305.07 188.19"
fill="none" stroke="black" stroke-width="0.5"/>
<path d="M305.07 188.19L306.93 185.43"
fill="none" stroke="black" stroke-width="0.5"/>
<path d="M306.93 185.43L309.1 182.91"
fill="none" stroke="black" stroke-width="0.5"/>
<path d="M309.1 182.91L311.56 180.66"
fill="none" stroke="black" stroke-width="0.5"/>
<path d="M311.56 180.66L314.27 178.71"
fill="none" stroke="black" stroke-width="0.5"/>
<path d="M314.27 178.71L317.19 177.1"
fill="none" stroke="black" stroke-width="0.5"/>
<path d="M317.19 177.1L320.28 175.85"
fill="none" stroke="black" stroke-width="0.5"/>
<path d="M320.28 175.85L323.49 174.97"
fill="none" stroke="black" stroke-width="0.5"/>
<path d="M323.49 174.97L326.79 174.48"
fill="none" stroke="black" stroke-width="0.5"/>
<path d="M326.79 174.48L330.12 174.38"
fill="none" stroke="black" stroke-width="0.5"/>
<path d="M330.12 174.38L333.44 174.68"
fill="none" stroke="black" stroke-width="0.5"/>
<path d="M333.44 174.68L336.7 175.37"
fill="none" stroke="black" stroke-width="0.5"/>
<path d="M336.7 175.37L339.85 176.43"
fill="none" stroke="black" stroke-width="0.5"/>
<path d="M339.85 176.43L342.86 177.87"
fill="none" stroke="black" stroke-width="0.5"/>
<path d="M342.86 177.87L345.68 179.64"
fill="none" stroke="black" stroke-width="0.5"/>
<path d="M345.68 179.64L348.27 181.74"
fill="none" stroke="black" stroke-width="0.5"/>
<path d="M348.27 181.74L350.59 184.14"
fill="none" stroke="black" stroke-width="0.5"/>
<path d="M350.59 184.14L352.61 186.78"
fill="none" stroke="black" stroke-width="0.5"/>
<path d="M352.61 186.78L354.31 189.65"
fill="none" stroke="black" stroke-width="0.5"/>
<path d="M354.31 189.65L355.65 192.7"
fill="none" stroke="black" stroke-width="0.5"/>
<path d="M355.65 192.7L356.62 195.89"
fill="none" stroke="black" stroke-width="0.5"/>
<path d="M356.62 195.89L357.21 199.17"
fill="none" stroke="black" stroke-width="0.5"/>
<path d="M357.21 199.17L357.41 202.5"
fill="none" stroke="black" stroke-width="0.5"/>
<path d="M357.41 397.5L357.21 400.83"
fill="none" stroke="black" stroke-width="0.5"/>
<path d="M357.21 400.83L356.62 404.11"
fill="none" stroke="black" stroke-width="0.5"/>
<path d="M356.62 404.11L355.65 407.3"
fill="none" stroke="black" stroke-width="0.5"/>
<path d="M355.65 407.3L354.31 410.35"
fill="none" stroke="black" stroke-width="0.5"/>
<path d="M354.31 410.35L352.61 413.22"
fill="none" stroke="black" stroke-width="0.5"/>
<path d="M352.61 413.22L350.59 415.86"
fill="none" stroke="black" stroke-width="0.5"/>
<path d="M350.59 415.86L348.27 418.26"
fill="none" stroke="black" stroke-width="0.5"/>
<path d="M348.27 418.26L345.68 420.36"
fill="none" stroke="black" stroke-width="0.5"/>
<path d="M345.68 420.36L342.86 422.13"
fill="none" stroke="black" stroke-width="0.5"/>
<path d="M342.86 422.13L339.85 423.57"
fill="none" stroke="black" stroke-width="0.5"/>
<path d="M339.85 423.57L336.7 424.63"
fill="none" stroke="black" stroke-width="0.5"/>
<path d="M336.7 424.63L333.44 425.32"
fill="none" stroke="black" stroke-width="0.5"/>
<path d="M333.44 425.32L330.12 425.62"
fill="none" stroke="black" stroke-width="0.5"/>
<path d="M330.12 425.62L326.79 425.52"
fill="none" stroke="black" stroke-width="0.5"/>
<path d="M326.79 425.52L323.49 425.03"
fill="none" stroke="black" stroke-width="0.5"/>
<path d="M323.49 425.03L320.28 424.15"
fill="none" stroke="black" stroke-width="0.5"/>
<path d="M320.28 424.15L317.19 422.9"
fill="none" stroke="black" stroke-width="0.5"/>
<path d="M317.19 422.9L314.27 421.29"
fill="none" stroke="black" stroke-width="0.5"/>
<path d="M314.27 421.29L311.56 419.34"
fill="none" stroke="black" stroke-width="0.5"/>
<path d="M311.56 419.34L309.1 417.09"
fill="none" stroke="black" stroke-width="0.5"/>
<path d="M309.1 417.09L306.93 414.57"
fill="none" stroke="black" stroke-width="0.5"/>
<path d="M306.93 414.57L305.07 411.81"
fill="none" stroke="black" stroke-width="0.5"/>
<path d="M305.07 411.81L303.54 408.84"
fill="none" stroke="black" stroke-width="0.5"/>
<path d="M303.54 408.84L302.38 405.72"
fill="none" stroke="black" stroke-width="0.5"/>
<path d="M302.38 405.72L301.6 402.48"
fill="none" stroke="black" stroke-width="0.5"/>
<path d="M301.6 402.48L301.21 399.17"
fill="none" stroke="black" stroke-width="0.5"/>
<path d="M301.21 399.17L301.21 395.84Z"
fill="none" stroke="black" stroke-width="0.5"/>
<path d="M301.21 395.84L301.6 392.53"
fill="none" stroke="black" stroke-width="0.5"/>
<path d="M301.6 392.53L302.38 389.29"
fill="none" stroke="black" stroke-width="0.5"/>
<path d="M302.38 389.29L303.54 386.17"
fill="none" stroke="black" stroke-width="0.5"/>
<path d="M303.54 386.17L305.07 383.2"
fill="none" stroke="black" stroke-width="0.5"/>
<path d="M305.07 383.2L306.93 380.44"
fill="none" stroke="black" stroke-width="0.5"/>
<path d="M306.93 380.44L309.1 377.91"
fill="none" stroke="black" stroke-width="0.5"/>
<path d="M309.1 377.91L311.56 375.66"
fill="none" stroke="black" stroke-width="0.5"/>
<path d="M311.56 375.66L314.27 373.72"
fill="none" stroke="black" stroke-width="0.5"/>
<path d="M314.27 373.72L317.19 372.11"
fill="none" stroke="black" stroke-width="0.5"/>
<path d="M317.19 372.11L320.28 370.86"
fill="none" stroke="black" stroke-width="0.5"/>
<path d="M320.28 370.86L323.49 369.98"
fill="none" stroke="black" stroke-width="0.5"/>
<path d="M323.49 369.98L326.79 369.49"
fill="none" stroke="black" stroke-width="0.5"/>
<path d="M326.79 369.49L330.12 369.39"
fill="none" stroke="black" stroke-width="0.5"/>
<path d="M330.12 369.39L333.44 369.69"
fill="none" stroke="black" stroke-width="0.5"/>
<path d="M333.44 369.69L336.7 370.37"
fill="none" stroke="black" stroke-width="0.5"/>
<path d="M336.7 370.37L339.85 371.44"
fill="none" stroke="black" stroke-width="0.5"/>
<path d="M339.85 371.44L342.86 372.87"
fill="none" stroke="black" stroke-width="0.5"/>
<path d="M342.86 372.87L345.68 374.65"
fill="none" stroke="black" stroke-width="0.5"/>
<path d="M345.68 374.65L348.27 376.75"
fill="none" stroke="black" stroke-width="0.5"/>
<path d="M348.27 376.75L350.59 379.14"
fill="none" stroke="black" stroke-width="0.5"/>
<path d="M350.59 379.14L352.61 381.79"
fill="none" stroke="black" stroke-width="0.5"/>
<path d="M352.61 381.79L354.31 384.66"
fill="none" stroke="black" stroke-width="0.5"/>
<path d="M354.31 384.66L355.65 387.71"
fill="none" stroke="black" stroke-width="0.5"/>
<path d="M355.65 387.71L356.62 390.9"
fill="none" stroke="black" stroke-width="0.5"/>
<path d="M356.62 390.9L357.21 394.18"
fill="none" stroke="black" stroke-width="0.5"/>
<path d="M357.21 394.18L357.41 397.5"
fill="none" stroke="black" stroke-width="0.5"/>
<path d="M 61.42 148.92 A 53.573 53.573 0 0 0 7.84 202.5"
fill="none" stroke="black" stroke-width="0.5"/>
<path d="M781.44 148.92L61.42 148.92"
fill="none" stroke="black" stroke-width="0.5"/>
<path d="M 792.16 159.64 A 10.715 10.715 0 0 0 781.44 148.92"
fill="none" stroke="black" stroke-width="0.5"/>
<path d="M792.16 440.36L792.16 159.64Z"
fill="none" stroke="black" stroke-width="0.5"/>
<path d="M 781.44 451.08 A 10.715 10.715 0 0 0 792.16 440.36"
fill="none" stroke="black" stroke-width="0.5"/>
<path d="M61.42 451.08L781.44 451.08"
fill="none" stroke="black" stroke-width="0.5"/>
<path d="M 7.84 397.5 A 53.573 53.573 0 0 0 61.42 451.08"
fill="none" stroke="black" stroke-width="0.5"/>
<path d="M7.84 397.5L7.84 202.5Z"
fill="none" stroke="black" stroke-width="0.5"/>
<path d="M143.12 300L142.92 303.33"
fill="none" stroke="black" stroke-width="0.5"/>
<path d="M142.92 303.33L142.33 306.61"
fill="none" stroke="black" stroke-width="0.5"/>
<path d="M142.33 306.61L141.36 309.79"
fill="none" stroke="black" stroke-width="0.5"/>
<path d="M141.36 309.79L140.01 312.84"
fill="none" stroke="black" stroke-width="0.5"/>
<path d="M140.01 312.84L138.32 315.71"
fill="none" stroke="black" stroke-width="0.5"/>
<path d="M138.32 315.71L136.3 318.36"
fill="none" stroke="black" stroke-width="0.5"/>
<path d="M136.3 318.36L133.97 320.75"
fill="none" stroke="black" stroke-width="0.5"/>
<path d="M133.97 320.75L131.39 322.85"
fill="none" stroke="black" stroke-width="0.5"/>
<path d="M131.39 322.85L128.57 324.63"
fill="none" stroke="black" stroke-width="0.5"/>
<path d="M128.57 324.63L125.56 326.06"
fill="none" stroke="black" stroke-width="0.5"/>
<path d="M125.56 326.06L122.4 327.13"
fill="none" stroke="black" stroke-width="0.5"/>
<path d="M122.4 327.13L119.14 327.82"
fill="none" stroke="black" stroke-width="0.5"/>
<path d="M119.14 327.82L115.82 328.11"
fill="none" stroke="black" stroke-width="0.5"/>
<path d="M115.82 328.11L112.49 328.01"
fill="none" stroke="black" stroke-width="0.5"/>
<path d="M112.49 328.01L109.2 327.52"
fill="none" stroke="black" stroke-width="0.5"/>
<path d="M109.2 327.52L105.98 326.64"
fill="none" stroke="black" stroke-width="0.5"/>
<path d="M105.98 326.64L102.89 325.39"
fill="none" stroke="black" stroke-width="0.5"/>
<path d="M102.89 325.39L99.98 323.78"
fill="none" stroke="black" stroke-width="0.5"/>
<path d="M99.98 323.78L97.27 321.84"
fill="none" stroke="black" stroke-width="0.5"/>
<path d="M97.27 321.84L94.81 319.59"
fill="none" stroke="black" stroke-width="0.5"/>
<path d="M94.81 319.59L92.63 317.07"
fill="none" stroke="black" stroke-width="0.5"/>
<path d="M92.63 317.07L90.77 314.3"
fill="none" stroke="black" stroke-width="0.5"/>
<path d="M90.77 314.3L89.25 311.34"
fill="none" stroke="black" stroke-width="0.5"/>
<path d="M89.25 311.34L88.09 308.21"
fill="none" stroke="black" stroke-width="0.5"/>
<path d="M88.09 308.21L87.31 304.98"
fill="none" stroke="black" stroke-width="0.5"/>
<path d="M87.31 304.98L86.91 301.67"
fill="none" stroke="black" stroke-width="0.5"/>
<path d="M86.91 301.67L86.91 298.33Z"
fill="none" stroke="black" stroke-width="0.5"/>
<path d="M86.91 298.33L87.31 295.02"
fill="none" stroke="black" stroke-width="0.5"/>
<path d="M87.31 295.02L88.09 291.79"
fill="none" stroke="black" stroke-width="0.5"/>
<path d="M88.09 291.79L89.25 288.66"
fill="none" stroke="black" stroke-width="0.5"/>
<path d="M89.25 288.66L90.77 285.7"
fill="none" stroke="black" stroke-width="0.5"/>
<path d="M90.77 285.7L92.63 282.93"
fill="none" stroke="black" stroke-width="0.5"/>
<path d="M92.63 282.93L94.81 280.41"
fill="none" stroke="black" stroke-width="0.5"/>
<path d="M94.81 280.41L97.27 278.16"
fill="none" stroke="black" stroke-width="0.5"/>
<path d="M97.27 278.16L99.98 276.22"
fill="none" stroke="black" stroke-width="0.5"/>
<path d="M99.98 276.22L102.89 274.61"
fill="none" stroke="black" stroke-width="0.5"/>
<path d="M102.89 274.61L105.98 273.36"
fill="none" stroke="black" stroke-width="0.5"/>
<path d="M105.98 273.36L109.2 272.48"
fill="none" stroke="black" stroke-width="0.5"/>
<path d="M109.2 272.48L112.49 271.99"
fill="none" stroke="black" stroke-width="0.5"/>
<path d="M112.49 271.99L115.82 271.89"
fill="none" stroke="black" stroke-width="0.5"/>
<path d="M115.82 271.89L119.14 272.18"
fill="none" stroke="black" stroke-width="0.5"/>
<path d="M119.14 272.18L122.4 272.87"
fill="none" stroke="black" stroke-width="0.5"/>
<path d="M122.4 272.87L125.56 273.94"
fill="none" stroke="black" stroke-width="0.5"/>
<path d="M125.56 273.94L128.57 275.37"
fill="none" stroke="black" stroke-width="0.5"/>
<path d="M128.57 275.37L131.39 277.15"
fill="none" stroke="black" stroke-width="0.5"/>
<path d="M131.39 277.15L133.97 279.25"
fill="none" stroke="black" stroke-width="0.5"/>
<path d="M133.97 279.25L136.3 281.64"
fill="none" stroke="black" stroke-width="0.5"/>
<path d="M136.3 281.64L138.32 284.29"
fill="none" stroke="black" stroke-width="0.5"/>
<path d="M138.32 284.29L140.01 287.16"
fill="none" stroke="black" stroke-width="0.5"/>
<path d="M140.01 287.16L141.36 290.21"
fill="none" stroke="black" stroke-width="0.5"/>
<path d="M141.36 290.21L142.33 293.39"
fill="none" stroke="black" stroke-width="0.5"/>
<path d="M142.33 293.39L142.92 296.67"
fill="none" stroke="black" stroke-width="0.5"/>
<path d="M142.92 296.67L143.12 300"
fill="none" stroke="black" stroke-width="0.5"/>
<path d="M734.83 383.04L734.64 385.07"
fill="none" stroke="black" stroke-width="0.5"/>
<path d="M734.64 385.07L734.07 387.02"
fill="none" stroke="black" stroke-width="0.5"/>
<path d="M734.07 387.02L733.13 388.83"
fill="none" stroke="black" stroke-width="0.5"/>
<path d="M733.13 388.83L731.87 390.43"
fill="none" stroke="black" stroke-width="0.5"/>
<path d="M731.87 390.43L730.33 391.77"
fill="none" stroke="black" stroke-width="0.5"/>
<path d="M730.33 391.77L728.57 392.79"
fill="none" stroke="black" stroke-width="0.5"/>
<path d="M728.57 392.79L726.64 393.45"
fill="none" stroke="black" stroke-width="0.5"/>
<path d="M726.64 393.45L724.63 393.74"
fill="none" stroke="black" stroke-width="0.5"/>
<path d="M724.63 393.74L722.59 393.64"
fill="none" stroke="black" stroke-width="0.5"/>
<path d="M722.59 393.64L720.61 393.16"
fill="none" stroke="black" stroke-width="0.5"/>
<path d="M720.61 393.16L718.76 392.32"
fill="none" stroke="black" stroke-width="0.5"/>
<path d="M718.76 392.32L717.1 391.14"
fill="none" stroke="black" stroke-width="0.5"/>
<path d="M717.1 391.14L715.7 389.66"
fill="none" stroke="black" stroke-width="0.5"/>
<path d="M715.7 389.66L714.6 387.95"
fill="none" stroke="black" stroke-width="0.5"/>
<path d="M714.6 387.95L713.84 386.06"
fill="none" stroke="black" stroke-width="0.5"/>
<path d="M713.84 386.06L713.45 384.06"
fill="none" stroke="black" stroke-width="0.5"/>
<path d="M713.45 384.06L713.45 382.02Z"
fill="none" stroke="black" stroke-width="0.5"/>
<path d="M713.45 382.02L713.84 380.02"
fill="none" stroke="black" stroke-width="0.5"/>
<path d="M713.84 380.02L714.6 378.13"
fill="none" stroke="black" stroke-width="0.5"/>
<path d="M714.6 378.13L715.7 376.42"
fill="none" stroke="black" stroke-width="0.5"/>
<path d="M715.7 376.42L717.1 374.94"
fill="none" stroke="black" stroke-width="0.5"/>
<path d="M717.1 374.94L718.76 373.76"
fill="none" stroke="black" stroke-width="0.5"/>
<path d="M718.76 373.76L720.61 372.91"
fill="none" stroke="black" stroke-width="0.5"/>
<path d="M720.61 372.91L722.59 372.43"
fill="none" stroke="black" stroke-width="0.5"/>
<path d="M722.59 372.43L724.63 372.34"
fill="none" stroke="black" stroke-width="0.5"/>
<path d="M724.63 372.34L726.64 372.63"
fill="none" stroke="black" stroke-width="0.5"/>
<path d="M726.64 372.63L728.57 373.29"
fill="none" stroke="black" stroke-width="0.5"/>
<path d="M728.57 373.29L730.33 374.31"
fill="none" stroke="black" stroke-width="0.5"/>
<path d="M730.33 374.31L731.87 375.64"
fill="none" stroke="black" stroke-width="0.5"/>
<path d="M731.87 375.64L733.13 377.25"
fill="none" stroke="black" stroke-width="0.5"/>
<path d="M733.13 377.25L734.07 379.06"
fill="none" stroke="black" stroke-width="0.5"/>
<path d="M734.07 379.06L734.64 381.01"
fill="none" stroke="black" stroke-width="0.5"/>
<path d="M734.64 381.01L734.83 383.04"
fill="none" stroke="black" stroke-width="0.5"/>
<path d="M568.76 383.04L568.56 385.07"
fill="none" stroke="black" stroke-width="0.5"/>
<path d="M568.56 385.07L567.99 387.02"
fill="none" stroke="black" stroke-width="0.5"/>
<path d="M567.99 387.02L567.06 388.83"
fill="none" stroke="black" stroke-width="0.5"/>
<path d="M567.06 388.83L565.8 390.43"
fill="none" stroke="black" stroke-width="0.5"/>
<path d="M565.8 390.43L564.26 391.77"
fill="none" stroke="black" stroke-width="0.5"/>
<path d="M564.26 391.77L562.49 392.79"
fill="none" stroke="black" stroke-width="0.5"/>
<path d="M562.49 392.79L560.57 393.45"
fill="none" stroke="black" stroke-width="0.5"/>
<path d="M560.57 393.45L558.55 393.74"
fill="none" stroke="black" stroke-width="0.5"/>
<path d="M558.55 393.74L556.52 393.64"
fill="none" stroke="black" stroke-width="0.5"/>
<path d="M556.52 393.64L554.54 393.16"
fill="none" stroke="black" stroke-width="0.5"/>
<path d="M554.54 393.16L552.68 392.32"
fill="none" stroke="black" stroke-width="0.5"/>
<path d="M552.68 392.32L551.02 391.14"
fill="none" stroke="black" stroke-width="0.5"/>
<path d="M551.02 391.14L549.62 389.66"
fill="none" stroke="black" stroke-width="0.5"/>
<path d="M549.62 389.66L548.52 387.95"
fill="none" stroke="black" stroke-width="0.5"/>
<path d="M548.52 387.95L547.76 386.06"
fill="none" stroke="black" stroke-width="0.5"/>
<path d="M547.76 386.06L547.38 384.06"
fill="none" stroke="black" stroke-width="0.5"/>
<path d="M547.38 384.06L547.38 382.02Z"
fill="none" stroke="black" stroke-width="0.5"/>
<path d="M547.38 382.02L547.76 380.02"
fill="none" stroke="black" stroke-width="0.5"/>
<path d="M547.76 380.02L548.52 378.13"
fill="none" stroke="black" stroke-width="0.5"/>
<path d="M548.52 378.13L549.62 376.42"
fill="none" stroke="black" stroke-width="0.5"/>
<path d="M549.62 376.42L551.02 374.94"
fill="none" stroke="black" stroke-width="0.5"/>
<path d="M551.02 374.94L552.68 373.76"
fill="none" stroke="black" stroke-width="0.5"/>
<path d="M552.68 373.76L554.54 372.91"
fill="none" stroke="black" stroke-width="0.5"/>
<path d="M554.54 372.91L556.52 372.43"
fill="none" stroke="black" stroke-width="0.5"/>
<path d="M556.52 372.43L558.55 372.34"
fill="none" stroke="black" stroke-width="0.5"/>
<path d="M558.55 372.34L560.57 372.63"
fill="none" stroke="black" stroke-width="0.5"/>
<path d="M560.57 372.63L562.49 373.29"
fill="none" stroke="black" stroke-width="0.5"/>
<path d="M562.49 373.29L564.26 374.31"
fill="none" stroke="black" stroke-width="0.5"/>
<path d="M564.26 374.31L565.8 375.64"
fill="none" stroke="black" stroke-width="0.5"/>
<path d="M565.8 375.64L567.06 377.25"
fill="none" stroke="black" stroke-width="0.5"/>
<path d="M567.06 377.25L567.99 379.06"
fill="none" stroke="black" stroke-width="0.5"/>
<path d="M567.99 379.06L568.56 381.01"
fill="none" stroke="black" stroke-width="0.5"/>
<path d="M568.56 381.01L568.76 383.04"
fill="none" stroke="black" stroke-width="0.5"/>
<path d="M734.83 216.96L734.64 218.99"
fill="none" stroke="black" stroke-width="0.5"/>
<path d="M734.64 218.99L734.07 220.94"
fill="none" stroke="black" stroke-width="0.5"/>
<path d="M734.07 220.94L733.13 222.75"
fill="none" stroke="black" stroke-width="0.5"/>
<path d="M733.13 222.75L731.87 224.36"
fill="none" stroke="black" stroke-width="0.5"/>
<path d="M731.87 224.36L730.33 225.69"
fill="none" stroke="black" stroke-width="0.5"/>
<path d="M730.33 225.69L728.57 226.71"
fill="none" stroke="black" stroke-width="0.5"/>
<path d="M728.57 226.71L726.64 227.37"
fill="none" stroke="black" stroke-width="0.5"/>
<path d="M726.64 227.37L724.63 227.66"
fill="none" stroke="black" stroke-width="0.5"/>
<path d="M724.63 227.66L722.59 227.57"
fill="none" stroke="black" stroke-width="0.5"/>
<path d="M722.59 227.57L720.61 227.09"
fill="none" stroke="black" stroke-width="0.5"/>
<path d="M720.61 227.09L718.76 226.24"
fill="none" stroke="black" stroke-width="0.5"/>
<path d="M718.76 226.24L717.1 225.06"
fill="none" stroke="black" stroke-width="0.5"/>
<path d="M717.1 225.06L715.7 223.58"
fill="none" stroke="black" stroke-width="0.5"/>
<path d="M715.7 223.58L714.6 221.87"
fill="none" stroke="black" stroke-width="0.5"/>
<path d="M714.6 221.87L713.84 219.98"
fill="none" stroke="black" stroke-width="0.5"/>
<path d="M713.84 219.98L713.45 217.98"
fill="none" stroke="black" stroke-width="0.5"/>
<path d="M713.45 217.98L713.45 215.94Z"
fill="none" stroke="black" stroke-width="0.5"/>
<path d="M713.45 215.94L713.84 213.94"
fill="none" stroke="black" stroke-width="0.5"/>
<path d="M713.84 213.94L714.6 212.05"
fill="none" stroke="black" stroke-width="0.5"/>
<path d="M714.6 212.05L715.7 210.34"
fill="none" stroke="black" stroke-width="0.5"/>
<path d="M715.7 210.34L717.1 208.86"
fill="none" stroke="black" stroke-width="0.5"/>
<path d="M717.1 208.86L718.76 207.68"
fill="none" stroke="black" stroke-width="0.5"/>
<path d="M718.76 207.68L720.61 206.84"
fill="none" stroke="black" stroke-width="0.5"/>
<path d="M720.61 206.84L722.59 206.36"
fill="none" stroke="black" stroke-width="0.5"/>
<path d="M722.59 206.36L724.63 206.26"
fill="none" stroke="black" stroke-width="0.5"/>
<path d="M724.63 206.26L726.64 206.55"
fill="none" stroke="black" stroke-width="0.5"/>
<path d="M726.64 206.55L728.57 207.21"
fill="none" stroke="black" stroke-width="0.5"/>
<path d="M728.57 207.21L730.33 208.23"
fill="none" stroke="black" stroke-width="0.5"/>
<path d="M730.33 208.23L731.87 209.57"
fill="none" stroke="black" stroke-width="0.5"/>
<path d="M731.87 209.57L733.13 211.17"
fill="none" stroke="black" stroke-width="0.5"/>
<path d="M733.13 211.17L734.07 212.98"
fill="none" stroke="black" stroke-width="0.5"/>
<path d="M734.07 212.98L734.64 214.93"
fill="none" stroke="black" stroke-width="0.5"/>
<path d="M734.64 214.93L734.83 216.96"
fill="none" stroke="black" stroke-width="0.5"/>
<path d="M568.76 216.96L568.56 218.99"
fill="none" stroke="black" stroke-width="0.5"/>
<path d="M568.56 218.99L567.99 220.94"
fill="none" stroke="black" stroke-width="0.5"/>
<path d="M567.99 220.94L567.06 222.75"
fill="none" stroke="black" stroke-width="0.5"/>
<path d="M567.06 222.75L565.8 224.36"
fill="none" stroke="black" stroke-width="0.5"/>
<path d="M565.8 224.36L564.26 225.69"
fill="none" stroke="black" stroke-width="0.5"/>
<path d="M564.26 225.69L562.49 226.71"
fill="none" stroke="black" stroke-width="0.5"/>
<path d="M562.49 226.71L560.57 227.37"
fill="none" stroke="black" stroke-width="0.5"/>
<path d="M560.57 227.37L558.55 227.66"
fill="none" stroke="black" stroke-width="0.5"/>
<path d="M558.55 227.66L556.52 227.57"
fill="none" stroke="black" stroke-width="0.5"/>
<path d="M556.52 227.57L554.54 227.09"
fill="none" stroke="black" stroke-width="0.5"/>
<path d="M554.54 227.09L552.68 226.24"
fill="none" stroke="black" stroke-width="0.5"/>
<path d="M552.68 226.24L551.02 225.06"
fill="none" stroke="black" stroke-width="0.5"/>
<path d="M551.02 225.06L549.62 223.58"
fill="none" stroke="black" stroke-width="0.5"/>
<path d="M549.62 223.58L548.52 221.87"
fill="none" stroke="black" stroke-width="0.5"/>
<path d="M548.52 221.87L547.76 219.98"
fill="none" stroke="black" stroke-width="0.5"/>
<path d="M547.76 219.98L547.38 217.98"
fill="none" stroke="black" stroke-width="0.5"/>
<path d="M547.38 217.98L547.38 215.94Z"
fill="none" stroke="black" stroke-width="0.5"/>
<path d="M547.38 215.94L547.76 213.94"
fill="none" stroke="black" stroke-width="0.5"/>
<path d="M547.76 213.94L548.52 212.05"
fill="none" stroke="black" stroke-width="0.5"/>
<path d="M548.52 212.05L549.62 210.34"
fill="none" stroke="black" stroke-width="0.5"/>
<path d="M549.62 210.34L551.02 208.86"
fill="none" stroke="black" stroke-width="0.5"/>
<path d="M551.02 208.86L552.68 207.68"
fill="none" stroke="black" stroke-width="0.5"/>
<path d="M552.68 207.68L554.54 206.84"
fill="none" stroke="black" stroke-width="0.5"/>
<path d="M554.54 206.84L556.52 206.36"
fill="none" stroke="black" stroke-width="0.5"/>
<path d="M556.52 206.36L558.55 206.26"
fill="none" stroke="black" stroke-width="0.5"/>
<path d="M558.55 206.26L560.57 206.55"
fill="none" stroke="black" stroke-width="0.5"/>
<path d="M560.57 206.55L562.49 207.21"
fill="none" stroke="black" stroke-width="0.5"/>
<path d="M562.49 207.21L564.26 208.23"
fill="none" stroke="black" stroke-width="0.5"/>
<path d="M564.26 208.23L565.8 209.57"
fill="none" stroke="black" stroke-width="0.5"/>
<path d="M565.8 209.57L567.06 211.17"
fill="none" stroke="black" stroke-width="0.5"/>
<path d="M567.06 211.17L567.99 212.98"
fill="none" stroke="black" stroke-width="0.5"/>
<path d="M567.99 212.98L568.56 214.93"
fill="none" stroke="black" stroke-width="0.5"/>
<path d="M568.56 214.93L568.76 216.96"
fill="none" stroke="black" stroke-width="0.5"/>
<path d="M780.75 426.27L780.55 428.54"
fill="none" stroke="black" stroke-width="0.5"/>
<path d="M780.55 428.54L779.98 430.73"
fill="none" stroke="black" stroke-width="0.5"/>
<path d="M779.98 430.73L779.04 432.8"
fill="none" stroke="black" stroke-width="0.5"/>
<path d="M779.04 432.8L777.77 434.69"
fill="none" stroke="black" stroke-width="0.5"/>
<path d="M777.77 434.69L776.2 436.33"
fill="none" stroke="black" stroke-width="0.5"/>
<path d="M776.2 436.33L774.37 437.68"
fill="none" stroke="black" stroke-width="0.5"/>
<path d="M774.37 437.68L772.35 438.7"
fill="none" stroke="black" stroke-width="0.5"/>
<path d="M772.35 438.7L770.17 439.37"
fill="none" stroke="black" stroke-width="0.5"/>
<path d="M770.17 439.37L767.92 439.65"
fill="none" stroke="black" stroke-width="0.5"/>
<path d="M767.92 439.65L765.65 439.56"
fill="none" stroke="black" stroke-width="0.5"/>
<path d="M765.65 439.56L763.43 439.08"
fill="none" stroke="black" stroke-width="0.5"/>
<path d="M763.43 439.08L761.32 438.23"
fill="none" stroke="black" stroke-width="0.5"/>
<path d="M761.32 438.23L759.39 437.04"
fill="none" stroke="black" stroke-width="0.5"/>
<path d="M759.39 437.04L757.68 435.54"
fill="none" stroke="black" stroke-width="0.5"/>
<path d="M757.68 435.54L756.26 433.77"
fill="none" stroke="black" stroke-width="0.5"/>
<path d="M756.26 433.77L755.15 431.79"
fill="none" stroke="black" stroke-width="0.5"/>
<path d="M755.15 431.79L754.39 429.65"
fill="none" stroke="black" stroke-width="0.5"/>
<path d="M754.39 429.65L754.01 427.41"
fill="none" stroke="black" stroke-width="0.5"/>
<path d="M754.01 427.41L754.01 425.14Z"
fill="none" stroke="black" stroke-width="0.5"/>
<path d="M754.01 425.14L754.39 422.9"
fill="none" stroke="black" stroke-width="0.5"/>
<path d="M754.39 422.9L755.15 420.76"
fill="none" stroke="black" stroke-width="0.5"/>
<path d="M755.15 420.76L756.26 418.77"
fill="none" stroke="black" stroke-width="0.5"/>
<path d="M756.26 418.77L757.68 417"
fill="none" stroke="black" stroke-width="0.5"/>
<path d="M757.68 417L759.39 415.5"
fill="none" stroke="black" stroke-width="0.5"/>
<path d="M759.39 415.5L761.32 414.31"
fill="none" stroke="black" stroke-width="0.5"/>
<path d="M761.32 414.31L763.43 413.47"
fill="none" stroke="black" stroke-width="0.5"/>
<path d="M763.43 413.47L765.65 412.99"
fill="none" stroke="black" stroke-width="0.5"/>
<path d="M765.65 412.99L767.92 412.89"
fill="none" stroke="black" stroke-width="0.5"/>
<path d="M767.92 412.89L770.17 413.18"
fill="none" stroke="black" stroke-width="0.5"/>
<path d="M770.17 413.18L772.35 413.84"
fill="none" stroke="black" stroke-width="0.5"/>
<path d="M772.35 413.84L774.37 414.87"
fill="none" stroke="black" stroke-width="0.5"/>
<path d="M774.37 414.87L776.2 416.22"
fill="none" stroke="black" stroke-width="0.5"/>
<path d="M776.2 416.22L777.77 417.86"
fill="none" stroke="black" stroke-width="0.5"/>
<path d="M777.77 417.86L779.04 419.74"
fill="none" stroke="black" stroke-width="0.5"/>
<path d="M779.04 419.74L779.98 421.81"
fill="none" stroke="black" stroke-width="0.5"/>
<path d="M779.98 421.81L780.55 424.01"
fill="none" stroke="black" stroke-width="0.5"/>
<path d="M780.55 424.01L780.75 426.27"
fill="none" stroke="black" stroke-width="0.5"/>
<path d="M528.2 426.27L528.01 428.54"
fill="none" stroke="black" stroke-width="0.5"/>
<path d="M528.01 428.54L527.44 430.73"
fill="none" stroke="black" stroke-width="0.5"/>
<path d="M527.44 430.73L526.5 432.8"
fill="none" stroke="black" stroke-width="0.5"/>
<path d="M526.5 432.8L525.23 434.69"
fill="none" stroke="black" stroke-width="0.5"/>
<path d="M525.23 434.69L523.66 436.33"
fill="none" stroke="black" stroke-width="0.5"/>
<path d="M523.66 436.33L521.83 437.68"
fill="none" stroke="black" stroke-width="0.5"/>
<path d="M521.83 437.68L519.8 438.7"
fill="none" stroke="black" stroke-width="0.5"/>
<path d="M519.8 438.7L517.63 439.37"
fill="none" stroke="black" stroke-width="0.5"/>
<path d="M517.63 439.37L515.38 439.65"
fill="none" stroke="black" stroke-width="0.5"/>
<path d="M515.38 439.65L513.11 439.56"
fill="none" stroke="black" stroke-width="0.5"/>
<path d="M513.11 439.56L510.89 439.08"
fill="none" stroke="black" stroke-width="0.5"/>
<path d="M510.89 439.08L508.78 438.23"
fill="none" stroke="black" stroke-width="0.5"/>
<path d="M508.78 438.23L506.84 437.04"
fill="none" stroke="black" stroke-width="0.5"/>
<path d="M506.84 437.04L505.14 435.54"
fill="none" stroke="black" stroke-width="0.5"/>
<path d="M505.14 435.54L503.71 433.77"
fill="none" stroke="black" stroke-width="0.5"/>
<path d="M503.71 433.77L502.6 431.79"
fill="none" stroke="black" stroke-width="0.5"/>
<path d="M502.6 431.79L501.85 429.65"
fill="none" stroke="black" stroke-width="0.5"/>
<path d="M501.85 429.65L501.46 427.41"
fill="none" stroke="black" stroke-width="0.5"/>
<path d="M501.46 427.41L501.46 425.14Z"
fill="none" stroke="black" stroke-width="0.5"/>
<path d="M501.46 425.14L501.85 422.9"
fill="none" stroke="black" stroke-width="0.5"/>
<path d="M501.85 422.9L502.6 420.76"
fill="none" stroke="black" stroke-width="0.5"/>
<path d="M502.6 420.76L503.71 418.77"
fill="none" stroke="black" stroke-width="0.5"/>
<path d="M503.71 418.77L505.14 417"
fill="none" stroke="black" stroke-width="0.5"/>
<path d="M505.14 417L506.84 415.5"
fill="none" stroke="black" stroke-width="0.5"/>
<path d="M506.84 415.5L508.78 414.31"
fill="none" stroke="black" stroke-width="0.5"/>
<path d="M508.78 414.31L510.89 413.47"
fill="none" stroke="black" stroke-width="0.5"/>
<path d="M510.89 413.47L513.11 412.99"
fill="none" stroke="black" stroke-width="0.5"/>
<path d="M513.11 412.99L515.38 412.89"
fill="none" stroke="black" stroke-width="0.5"/>
<path d="M515.38 412.89L517.63 413.18"
fill="none" stroke="black" stroke-width="0.5"/>
<path d="M517.63 413.18L519.8 413.84"
fill="none" stroke="black" stroke-width="0.5"/>
<path d="M519.8 413.84L521.83 414.87"
fill="none" stroke="black" stroke-width="0.5"/>
<path d="M521.83 414.87L523.66 416.22"
fill="none" stroke="black" stroke-width="0.5"/>
<path d="M523.66 416.22L525.23 417.86"
fill="none" stroke="black" stroke-width="0.5"/>
<path d="M525.23 417.86L526.5 419.74"
fill="none" stroke="black" stroke-width="0.5"/>
<path d="M526.5 419.74L527.44 421.81"
fill="none" stroke="black" stroke-width="0.5"/>
<path d="M527.44 421.81L528.01 424.01"
fill="none" stroke="black" stroke-width="0.5"/>
<path d="M528.01 424.01L528.2 426.27"
fill="none" stroke="black" stroke-width="0.5"/>
<path d="M780.75 173.73L780.55 175.99"
fill="none" stroke="black" stroke-width="0.5"/>
<path d="M780.55 175.99L779.98 178.19"
fill="none" stroke="black" stroke-width="0.5"/>
<path d="M779.98 178.19L779.04 180.26"
fill="none" stroke="black" stroke-width="0.5"/>
<path d="M779.04 180.26L777.77 182.14"
fill="none" stroke="black" stroke-width="0.5"/>
<path d="M777.77 182.14L776.2 183.78"
fill="none" stroke="black" stroke-width="0.5"/>
<path d="M776.2 183.78L774.37 185.13"
fill="none" stroke="black" stroke-width="0.5"/>
<path d="M774.37 185.13L772.35 186.16"
fill="none" stroke="black" stroke-width="0.5"/>
<path d="M772.35 186.16L770.17 186.82"
fill="none" stroke="black" stroke-width="0.5"/>
<path d="M770.17 186.82L767.92 187.11"
fill="none" stroke="black" stroke-width="0.5"/>
<path d="M767.92 187.11L765.65 187.01"
fill="none" stroke="black" stroke-width="0.5"/>
<path d="M765.65 187.01L763.43 186.53"
fill="none" stroke="black" stroke-width="0.5"/>
<path d="M763.43 186.53L761.32 185.69"
fill="none" stroke="black" stroke-width="0.5"/>
<path d="M761.32 185.69L759.39 184.5"
fill="none" stroke="black" stroke-width="0.5"/>
<path d="M759.39 184.5L757.68 183"
fill="none" stroke="black" stroke-width="0.5"/>
<path d="M757.68 183L756.26 181.23"
fill="none" stroke="black" stroke-width="0.5"/>
<path d="M756.26 181.23L755.15 179.24"
fill="none" stroke="black" stroke-width="0.5"/>
<path d="M755.15 179.24L754.39 177.1"
fill="none" stroke="black" stroke-width="0.5"/>
<path d="M754.39 177.1L754.01 174.86"
fill="none" stroke="black" stroke-width="0.5"/>
<path d="M754.01 174.86L754.01 172.59Z"
fill="none" stroke="black" stroke-width="0.5"/>
<path d="M754.01 172.59L754.39 170.35"
fill="none" stroke="black" stroke-width="0.5"/>
<path d="M754.39 170.35L755.15 168.21"
fill="none" stroke="black" stroke-width="0.5"/>
<path d="M755.15 168.21L756.26 166.23"
fill="none" stroke="black" stroke-width="0.5"/>
<path d="M756.26 166.23L757.68 164.46"
fill="none" stroke="black" stroke-width="0.5"/>
<path d="M757.68 164.46L759.39 162.96"
fill="none" stroke="black" stroke-width="0.5"/>
<path d="M759.39 162.96L761.32 161.77"
fill="none" stroke="black" stroke-width="0.5"/>
<path d="M761.32 161.77L763.43 160.92"
fill="none" stroke="black" stroke-width="0.5"/>
<path d="M763.43 160.92L765.65 160.44"
fill="none" stroke="black" stroke-width="0.5"/>
<path d="M765.65 160.44L767.92 160.35"
fill="none" stroke="black" stroke-width="0.5"/>
<path d="M767.92 160.35L770.17 160.63"
fill="none" stroke="black" stroke-width="0.5"/>
<path d="M770.17 160.63L772.35 161.3"
fill="none" stroke="black" stroke-width="0.5"/>
<path d="M772.35 161.3L774.37 162.32"
fill="none" stroke="black" stroke-width="0.5"/>
<path d="M774.37 162.32L776.2 163.67"
fill="none" stroke="black" stroke-width="0.5"/>
<path d="M776.2 163.67L777.77 165.31"
fill="none" stroke="black" stroke-width="0.5"/>
<path d="M777.77 165.31L779.04 167.2"
fill="none" stroke="black" stroke-width="0.5"/>
<path d="M779.04 167.2L779.98 169.27"
fill="none" stroke="black" stroke-width="0.5"/>
<path d="M779.98 169.27L780.55 171.46"
fill="none" stroke="black" stroke-width="0.5"/>
<path d="M780.55 171.46L780.75 173.73"
fill="none" stroke="black" stroke-width="0.5"/>
<path d="M528.2 173.73L528.01 175.99"
fill="none" stroke="black" stroke-width="0.5"/>
<path d="M528.01 175.99L527.44 178.19"
fill="none" stroke="black" stroke-width="0.5"/>
<path d="M527.44 178.19L526.5 180.26"
fill="none" stroke="black" stroke-width="0.5"/>
<path d="M526.5 180.26L525.23 182.14"
fill="none" stroke="black" stroke-width="0.5"/>
<path d="M525.23 182.14L523.66 183.78"
fill="none" stroke="black" stroke-width="0.5"/>
<path d="M523.66 183.78L521.83 185.13"
fill="none" stroke="black" stroke-width="0.5"/>
<path d="M521.83 185.13L519.8 186.16"
fill="none" stroke="black" stroke-width="0.5"/>
<path d="M519.8 186.16L517.63 186.82"
fill="none" stroke="black" stroke-width="0.5"/>
<path d="M517.63 186.82L515.38 187.11"
fill="none" stroke="black" stroke-width="0.5"/>
<path d="M515.38 187.11L513.11 187.01"
fill="none" stroke="black" stroke-width="0.5"/>
<path d="M513.11 187.01L510.89 186.53"
fill="none" stroke="black" stroke-width="0.5"/>
<path d="M510.89 186.53L508.78 185.69"
fill="none" stroke="black" stroke-width="0.5"/>
<path d="M508.78 185.69L506.84 184.5"
fill="none" stroke="black" stroke-width="0.5"/>
<path d="M506.84 184.5L505.14 183"
fill="none" stroke="black" stroke-width="0.5"/>
<path d="M505.14 183L503.71 181.23"
fill="none" stroke="black" stroke-width="0.5"/>
<path d="M503.71 181.23L502.6 179.24"
fill="none" stroke="black" stroke-width="0.5"/>
<path d="M502.6 179.24L501.85 177.1"
fill="none" stroke="black" stroke-width="0.5"/>
<path d="M501.85 177.1L501.46 174.86"
fill="none" stroke="black" stroke-width="0.5"/>
<path d="M501.46 174.86L501.46 172.59Z"
fill="none" stroke="black" stroke-width="0.5"/>
<path d="M501.46 172.59L501.85 170.35"
fill="none" stroke="black" stroke-width="0.5"/>
<path d="M501.85 170.35L502.6 168.21"
fill="none" stroke="black" stroke-width="0.5"/>
<path d="M502.6 168.21L503.71 166.23"
fill="none" stroke="black" stroke-width="0.5"/>
<path d="M503.71 166.23L505.14 164.46"
fill="none" stroke="black" stroke-width="0.5"/>
<path d="M505.14 164.46L506.84 162.96"
fill="none" stroke="black" stroke-width="0.5"/>
<path d="M506.84 162.96L508.78 161.77"
fill="none" stroke="black" stroke-width="0.5"/>
<path d="M508.78 161.77L510.89 160.92"
fill="none" stroke="black" stroke-width="0.5"/>
<path d="M510.89 160.92L513.11 160.44"
fill="none" stroke="black" stroke-width="0.5"/>
<path d="M513.11 160.44L515.38 160.35"
fill="none" stroke="black" stroke-width="0.5"/>
<path d="M515.38 160.35L517.63 160.63"
fill="none" stroke="black" stroke-width="0.5"/>
<path d="M517.63 160.63L519.8 161.3"
fill="none" stroke="black" stroke-width="0.5"/>
<path d="M519.8 161.3L521.83 162.32"
fill="none" stroke="black" stroke-width="0.5"/>
<path d="M521.83 162.32L523.66 163.67"
fill="none" stroke="black" stroke-width="0.5"/>
<path d="M523.66 163.67L525.23 165.31"
fill="none" stroke="black" stroke-width="0.5"/>
<path d="M525.23 165.31L526.5 167.2"
fill="none" stroke="black" stroke-width="0.5"/>
<path d="M526.5 167.2L527.44 169.27"
fill="none" stroke="black" stroke-width="0.5"/>
<path d="M527.44 169.27L528.01 171.46"
fill="none" stroke="black" stroke-width="0.5"/>
<path d="M528.01 171.46L528.2 173.73"
fill="none" stroke="black" stroke-width="0.5"/>
<path d="M742.87 300L742.67 306.33"
fill="none" stroke="black" stroke-width="0.5"/>
<path d="M742.67 306.33L742.08 312.63"
fill="none" stroke="black" stroke-width="0.5"/>
<path d="M742.08 312.63L741.1 318.89"
fill="none" stroke="black" stroke-width="0.5"/>
<path d="M741.1 318.89L739.73 325.07"
fill="none" stroke="black" stroke-width="0.5"/>
<path d="M739.73 325.07L737.98 331.15"
fill="none" stroke="black" stroke-width="0.5"/>
<path d="M737.98 331.15L735.86 337.12"
fill="none" stroke="black" stroke-width="0.5"/>
<path d="M735.86 337.12L733.37 342.94"
fill="none" stroke="black" stroke-width="0.5"/>
<path d="M733.37 342.94L730.52 348.59"
fill="none" stroke="black" stroke-width="0.5"/>
<path d="M730.52 348.59L727.33 354.06"
fill="none" stroke="black" stroke-width="0.5"/>
<path d="M727.33 354.06L723.8 359.32"
fill="none" stroke="black" stroke-width="0.5"/>
<path d="M723.8 359.32L719.95 364.34"
fill="none" stroke="black" stroke-width="0.5"/>
<path d="M719.95 364.34L715.8 369.12"
fill="none" stroke="black" stroke-width="0.5"/>
<path d="M715.8 369.12L711.36 373.64"
fill="none" stroke="black" stroke-width="0.5"/>
<path d="M711.36 373.64L706.64 377.86"
fill="none" stroke="black" stroke-width="0.5"/>
<path d="M706.64 377.86L701.68 381.79"
fill="none" stroke="black" stroke-width="0.5"/>
<path d="M701.68 381.79L696.47 385.4"
fill="none" stroke="black" stroke-width="0.5"/>
<path d="M696.47 385.4L691.06 388.68"
fill="none" stroke="black" stroke-width="0.5"/>
<path d="M691.06 388.68L685.45 391.61"
fill="none" stroke="black" stroke-width="0.5"/>
<path d="M685.45 391.61L679.67 394.19"
fill="none" stroke="black" stroke-width="0.5"/>
<path d="M679.67 394.19L673.74 396.41"
fill="none" stroke="black" stroke-width="0.5"/>
<path d="M673.74 396.41L667.68 398.25"
fill="none" stroke="black" stroke-width="0.5"/>
<path d="M667.68 398.25L661.52 399.72"
fill="none" stroke="black" stroke-width="0.5"/>
<path d="M661.52 399.72L655.28 400.79"
fill="none" stroke="black" stroke-width="0.5"/>
<path d="M655.28 400.79L648.99 401.48"
fill="none" stroke="black" stroke-width="0.5"/>
<path d="M648.99 401.48L642.66 401.78"
fill="none" stroke="black" stroke-width="0.5"/>
<path d="M642.66 401.78L636.33 401.68"
fill="none" stroke="black" stroke-width="0.5"/>
<path d="M636.33 401.68L630.02 401.19"
fill="none" stroke="black" stroke-width="0.5"/>
<path d="M630.02 401.19L623.75 400.3"
fill="none" stroke="black" stroke-width="0.5"/>
<path d="M623.75 400.3L617.55 399.03"
fill="none" stroke="black" stroke-width="0.5"/>
<path d="M617.55 399.03L611.44 397.38"
fill="none" stroke="black" stroke-width="0.5"/>
<path d="M611.44 397.38L605.44 395.35"
fill="none" stroke="black" stroke-width="0.5"/>
<path d="M605.44 395.35L599.58 392.95"
fill="none" stroke="black" stroke-width="0.5"/>
<path d="M599.58 392.95L593.88 390.19"
fill="none" stroke="black" stroke-width="0.5"/>
<path d="M593.88 390.19L588.37 387.08"
fill="none" stroke="black" stroke-width="0.5"/>
<path d="M588.37 387.08L583.06 383.63"
fill="none" stroke="black" stroke-width="0.5"/>
<path d="M583.06 383.63L577.97 379.86"
fill="none" stroke="black" stroke-width="0.5"/>
<path d="M577.97 379.86L573.13 375.79"
fill="none" stroke="black" stroke-width="0.5"/>
<path d="M573.13 375.79L568.55 371.41"
fill="none" stroke="black" stroke-width="0.5"/>
<path d="M568.55 371.41L564.25 366.77"
fill="none" stroke="black" stroke-width="0.5"/>
<path d="M564.25 366.77L560.24 361.86"
fill="none" stroke="black" stroke-width="0.5"/>
<path d="M560.24 361.86L556.56 356.72"
fill="none" stroke="black" stroke-width="0.5"/>
<path d="M556.56 356.72L553.19 351.35"
fill="none" stroke="black" stroke-width="0.5"/>
<path d="M553.19 351.35L550.17 345.79"
fill="none" stroke="black" stroke-width="0.5"/>
<path d="M550.17 345.79L547.5 340.05"
fill="none" stroke="black" stroke-width="0.5"/>
<path d="M547.5 340.05L545.19 334.15"
fill="none" stroke="black" stroke-width="0.5"/>
<path d="M545.19 334.15L543.25 328.12"
fill="none" stroke="black" stroke-width="0.5"/>
<path d="M543.25 328.12L541.69 321.99"
fill="none" stroke="black" stroke-width="0.5"/>
<path d="M541.69 321.99L540.52 315.77"
fill="none" stroke="black" stroke-width="0.5"/>
<path d="M540.52 315.77L539.73 309.48"
fill="none" stroke="black" stroke-width="0.5"/>
<path d="M539.73 309.48L539.34 303.17"
fill="none" stroke="black" stroke-width="0.5"/>
<path d="M539.34 303.17L539.34 296.83Z"
fill="none" stroke="black" stroke-width="0.5"/>
<path d="M539.34 296.83L539.73 290.52"
fill="none" stroke="black" stroke-width="0.5"/>
<path d="M539.73 290.52L540.52 284.23"
fill="none" stroke="black" stroke-width="0.5"/>
<path d="M540.52 284.23L541.69 278.01"
fill="none" stroke="black" stroke-width="0.5"/>
<path d="M541.69 278.01L543.25 271.88"
fill="none" stroke="black" stroke-width="0.5"/>
<path d="M543.25 271.88L545.19 265.85"
fill="none" stroke="black" stroke-width="0.5"/>
<path d="M545.19 265.85L547.5 259.95"
fill="none" stroke="black" stroke-width="0.5"/>
<path d="M547.5 259.95L550.17 254.21"
fill="none" stroke="black" stroke-width="0.5"/>
<path d="M550.17 254.21L553.19 248.65"
fill="none" stroke="black" stroke-width="0.5"/>
<path d="M553.19 248.65L556.56 243.28"
fill="none" stroke="black" stroke-width="0.5"/>
<path d="M556.56 243.28L560.24 238.14"
fill="none" stroke="black" stroke-width="0.5"/>
<path d="M560.24 238.14L564.25 233.23"
fill="none" stroke="black" stroke-width="0.5"/>
<path d="M564.25 233.23L568.55 228.59"
fill="none" stroke="black" stroke-width="0.5"/>
<path d="M568.55 228.59L573.13 224.21"
fill="none" stroke="black" stroke-width="0.5"/>
<path d="M573.13 224.21L577.97 220.14"
fill="none" stroke="black" stroke-width="0.5"/>
<path d="M577.97 220.14L583.06 216.37"
fill="none" stroke="black" stroke-width="0.5"/>
<path d="M583.06 216.37L588.37 212.92"
fill="none" stroke="black" stroke-width="0.5"/>
<path d="M588.37 212.92L593.88 209.81"
fill="none" stroke="black" stroke-width="0.5"/>
<path d="M593.88 209.81L599.58 207.05"
fill="none" stroke="black" stroke-width="0.5"/>
<path d="M599.58 207.05L605.44 204.65"
fill="none" stroke="black" stroke-width="0.5"/>
<path d="M605.44 204.65L611.44 202.62"
fill="none" stroke="black" stroke-width="0.5"/>
<path d="M611.44 202.62L617.55 200.97"
fill="none" stroke="black" stroke-width="0.5"/>
<path d="M617.55 200.97L623.75 199.7"
fill="none" stroke="black" stroke-width="0.5"/>
<path d="M623.75 199.7L630.02 198.81"
fill="none" stroke="black" stroke-width="0.5"/>
<path d="M630.02 198.81L636.33 198.32"
fill="none" stroke="black" stroke-width="0.5"/>
<path d="M636.33 198.32L642.66 198.22"
fill="none" stroke="black" stroke-width="0.5"/>
<path d="M642.66 198.22L648.99 198.52"
fill="none" stroke="black" stroke-width="0.5"/>
<path d="M648.99 198.52L655.28 199.21"
fill="none" stroke="black" stroke-width="0.5"/>
<path d="M655.28 199.21L661.52 200.28"
fill="none" stroke="black" stroke-width="0.5"/>
<path d="M661.52 200.28L667.68 201.75"
fill="none" stroke="black" stroke-width="0.5"/>
<path d="M667.68 201.75L673.74 203.59"
fill="none" stroke="black" stroke-width="0.5"/>
<path d="M673.74 203.59L679.67 205.81"
fill="none" stroke="black" stroke-width="0.5"/>
<path d="M679.67 205.81L685.45 208.39"
fill="none" stroke="black" stroke-width="0.5"/>
<path d="M685.45 208.39L691.06 211.32"
fill="none" stroke="black" stroke-width="0.5"/>
<path d="M691.06 211.32L696.47 214.6"
fill="none" stroke="black" stroke-width="0.5"/>
<path d="M696.47 214.6L701.68 218.21"
fill="none" stroke="black" stroke-width="0.5"/>
<path d="M701.68 218.21L706.64 222.14"
fill="none" stroke="black" stroke-width="0.5"/>
<path d="M706.64 222.14L711.36 226.36"
fill="none" stroke="black" stroke-width="0.5"/>
<path d="M711.36 226.36L715.8 230.88"
fill="none" stroke="black" stroke-width="0.5"/>
<path d="M715.8 230.88L719.95 235.66"
fill="none" stroke="black" stroke-width="0.5"/>
<path d="M719.95 235.66L723.8 240.68"
fill="none" stroke="black" stroke-width="0.5"/>
<path d="M723.8 240.68L727.33 245.94"
fill="none" stroke="black" stroke-width="0.5"/>
<path d="M727.33 245.94L730.52 251.41"
fill="none" stroke="black" stroke-width="0.5"/>
<path d="M730.52 251.41L733.37 257.06"
fill="none" stroke="black" stroke-width="0.5"/>
<path d="M733.37 257.06L735.86 262.88"
fill="none" stroke="black" stroke-width="0.5"/>
<path d="M735.86 262.88L737.98 268.85"
fill="none" stroke="black" stroke-width="0.5"/>
<path d="M737.98 268.85L739.73 274.93"
fill="none" stroke="black" stroke-width="0.5"/>
<path d="M739.73 274.93L741.1 281.11"
fill="none" stroke="black" stroke-width="0.5"/>
<path d="M741.1 281.11L742.08 287.37"
fill="none" stroke="black" stroke-width="0.5"/>
<path d="M742.08 287.37L742.67 293.67"
fill="none" stroke="black" stroke-width="0.5"/>
<path d="M742.67 293.67L742.87 300"
fill="none" stroke="black" stroke-width="0.5"/>
</svg>
