<?xml version="1.0" standalone="no"?>
<!DOCTYPE svg PUBLIC "-//W3C//DTD SVG 1.0//EN" "http://www.w3.org/TR/2001/REC-SVG-20010904/DTD/svg10.dtd">
<svg xmlns="http://www.w3.org/2000/svg" xmlns:xlink="http://www.w3.org/1999/xlink" id="body_1486122957_61542" width="1058.268310546875" height="1496.6937255859375">

<g transform="matrix(7.1910197080367331 0 0 -7.1910197080367331 852.73004213509125 748.34686279296886)" >
    <g>
            <path d="M-52.950000000000145 18.199999999999999L-52.962788772583153 18.566221487522125L-53.001092624664452 18.930658769607543L-53.064725112915184 19.291536402702331L-53.153376293182518 19.647096109390258L-53.266613674163963 19.995605778694152L-53.403886508941795 20.335367393493652L-53.564525318145897 20.664725732803344L-53.747747611999657 20.982076120376586L-53.952660751342918 21.285872650146484L-54.178266716003563 21.574634981155395L-54.423466157913353 21.84695644378662L-54.687064361572411 22.10151023864746L-54.967777204513695 22.337056350708007L-55.264237356186058 22.552447032928466L-55.575000000000145 22.74663324356079L-55.89855141639724 22.918668937683105L-56.233315420150902 23.06771535873413L-56.577660751342918 23.193046760559081L-56.92991001606002 23.294052791595458L-57.288347077369835 23.370240879058837L-57.651225578785088 23.421240043640136L-58.01677764654174 23.446801853179931L-58.383222353458549 23.446801853179931L-58.748774421215202 23.421240043640136L-59.111652922630455 23.370240879058837L-59.470089983940269 23.294052791595458L-59.822339248657372 23.193046760559081L-60.166684579849388 23.06771535873413L-60.50144858360305 22.918668937683105L-60.825000000000145 22.74663324356079L-61.135762643814232 22.552447032928466L-61.432222795486595 22.337056350708007L-61.712935638427879 22.10151023864746L-61.976533842086937 21.84695644378662L-62.221733283996727 21.574634981155395L-62.447339248657372 21.285872650146484L-62.652252388000633 20.982076120376586L-62.835474681854393 20.664725732803344L-62.996113491058495 20.335367393493652L-63.133386325836327 19.995605778694152L-63.246623706817772 19.647096109390258L-63.335274887085106 19.291536402702331L-63.398907375335838 18.930658769607543L-63.437211227417137 18.566221487522125L-63.450000000000145 18.199999999999999L-63.437211227417137 17.833778512477874L-63.398907375335838 17.469341230392455L-63.335274887085106 17.108463597297668L-63.246623706817772 16.752903890609741L-63.133386325836327 16.404394221305846L-62.996113491058495 16.064632606506347L-62.835474681854393 15.735274267196655L-62.652252388000633 15.417923879623412L-62.447339248657372 15.114127349853515L-62.221733283996727 14.825365018844604L-61.976533842086937 14.553043556213378L-61.712935638427879 14.298489761352538L-61.432222795486595 14.062943649291991L-61.135762643814232 13.847552967071532L-60.825000000000145 13.653366756439208L-60.50144858360305 13.481331062316894L-60.166684579849388 13.332284641265868L-59.822339248657372 13.206953239440917L-59.470089983940269 13.10594720840454L-59.111652922630455 13.029759120941161L-58.748774421215202 12.978759956359863L-58.383222353458549 12.953198146820068L-58.01677764654174 12.953198146820068L-57.651225578785088 12.978759956359863L-57.288347077369835 13.029759120941161L-56.92991001606002 13.10594720840454L-56.577660751342918 13.206953239440917L-56.233315420150902 13.332284641265868L-55.89855141639724 13.481331062316894L-55.575000000000145 13.653366756439208L-55.264237356186058 13.847552967071532L-54.967777204513695 14.062943649291991L-54.687064361572411 14.298489761352538L-54.423466157913353 14.553043556213378L-54.178266716003563 14.825365018844604L-53.952660751342918 15.114127349853515L-53.747747611999657 15.417923879623412L-53.564525318145897 15.735274267196655L-53.403886508941795 16.064632606506347L-53.266613674163963 16.404394221305846L-53.153376293182518 16.752903890609741L-53.064725112915184 17.108463597297668L-53.001092624664452 17.469341230392455L-52.950000000000145 18.199999999999999" stroke="#000000" stroke-width="0.098386600613594055" stroke-linecap="round" stroke-linejoin="round" fill="none" />
            <path d="M-52.950000000000145 -18.199999999999999L-52.962788772583153 -17.833778512477874L-53.001092624664452 -17.469341230392455L-53.064725112915184 -17.108463597297668L-53.153376293182518 -16.752903890609741L-53.266613674163963 -16.404394221305846L-53.403886508941795 -16.064632606506347L-53.564525318145897 -15.735274267196655L-53.747747611999657 -15.417923879623412L-53.952660751342918 -15.114127349853515L-54.178266716003563 -14.825365018844604L-54.423466157913353 -14.553043556213378L-54.687064361572411 -14.298489761352538L-54.967777204513695 -14.062943649291991L-55.264237356186058 -13.847552967071532L-55.575000000000145 -13.653366756439208L-55.89855141639724 -13.481331062316894L-56.233315420150902 -13.332284641265868L-56.577660751342918 -13.206953239440917L-56.92991001606002 -13.10594720840454L-57.288347077369835 -13.029759120941161L-57.651225578785088 -12.978759956359863L-58.01677764654174 -12.953198146820068L-58.383222353458549 -12.953198146820068L-58.748774421215202 -12.978759956359863L-59.111652922630455 -13.029759120941161L-59.470089983940269 -13.10594720840454L-59.822339248657372 -13.206953239440917L-60.166684579849388 -13.332284641265868L-60.50144858360305 -13.481331062316894L-60.825000000000145 -13.653366756439208L-61.135762643814232 -13.847552967071532L-61.432222795486595 -14.062943649291991L-61.712935638427879 -14.298489761352538L-61.976533842086937 -14.553043556213378L-62.221733283996727 -14.825365018844604L-62.447339248657372 -15.114127349853515L-62.652252388000633 -15.417923879623412L-62.835474681854393 -15.735274267196655L-62.996113491058495 -16.064632606506347L-63.133386325836327 -16.404394221305846L-63.246623706817772 -16.752903890609741L-63.335274887085106 -17.108463597297668L-63.398907375335838 -17.469341230392455L-63.437211227417137 -17.833778512477874L-63.450000000000145 -18.199999999999999L-63.437211227417137 -18.566221487522125L-63.398907375335838 -18.930658769607543L-63.335274887085106 -19.291536402702331L-63.246623706817772 -19.647096109390258L-63.133386325836327 -19.995605778694152L-62.996113491058495 -20.335367393493652L-62.835474681854393 -20.664725732803344L-62.652252388000633 -20.982076120376586L-62.447339248657372 -21.285872650146484L-62.221733283996727 -21.574634981155395L-61.976533842086937 -21.84695644378662L-61.712935638427879 -22.10151023864746L-61.432222795486595 -22.337056350708007L-61.135762643814232 -22.552447032928466L-60.825000000000145 -22.74663324356079L-60.50144858360305 -22.918668937683105L-60.166684579849388 -23.06771535873413L-59.822339248657372 -23.193046760559081L-59.470089983940269 -23.294052791595458L-59.111652922630455 -23.370240879058837L-58.748774421215202 -23.421240043640136L-58.383222353458549 -23.446801853179931L-58.01677764654174 -23.446801853179931L-57.651225578785088 -23.421240043640136L-57.288347077369835 -23.370240879058837L-56.92991001606002 -23.294052791595458L-56.577660751342918 -23.193046760559081L-56.233315420150902 -23.06771535873413L-55.89855141639724 -22.918668937683105L-55.575000000000145 -22.74663324356079L-55.264237356186058 -22.552447032928466L-54.967777204513695 -22.337056350708007L-54.687064361572411 -22.10151023864746L-54.423466157913353 -21.84695644378662L-54.178266716003563 -21.574634981155395L-53.952660751342918 -21.285872650146484L-53.747747611999657 -20.982076120376586L-53.564525318145897 -20.664725732803344L-53.403886508941795 -20.335367393493652L-53.266613674163963 -19.995605778694152L-53.153376293182518 -19.647096109390258L-53.064725112915184 -19.291536402702331L-53.001092624664452 -18.930658769607543L-52.950000000000145 -18.199999999999999" stroke="#000000" stroke-width="0.098386600613594055" stroke-linecap="round" stroke-linejoin="round" fill="none" />
            <path d="M-92.950000000000173 8.6057765401694008E-17L-92.962788772583181 0.36622148752212536L-93.00109262466448 0.73065876960754406L-93.064725112915212 1.0915364027023315L-93.153376293182546 1.4470961093902588L-93.266613674163992 1.7956057786941528L-93.403886508941824 2.1353673934936523L-93.564525318145925 2.4647257328033447L-93.747747611999685 2.7820761203765869L-93.952660751342947 3.0858726501464844L-94.178266716003591 3.3746349811553955L-94.423466157913381 3.6469564437866211L-94.687064361572439 3.9015102386474609L-94.967777204513723 4.1370563507080078L-95.264237356186086 4.3524470329284668L-95.575000000000173 4.546633243560791L-95.898551416397268 4.7186689376831055L-96.23331542015093 4.8677153587341309L-96.577660751342947 4.993046760559082L-96.929910016060049 5.094052791595459L-97.288347077369863 5.1702408790588379L-97.651225578785116 5.2212400436401367L-98.016777646541769 5.2468018531799316L-98.383222353458578 5.2468018531799316L-98.748774421215231 5.2212400436401367L-99.111652922630483 5.1702408790588379L-99.470089983940298 5.094052791595459L-99.8223392486574 4.993046760559082L-100.16668457984942 4.8677153587341309L-100.50144858360308 4.7186689376831055L-100.82500000000017 4.546633243560791L-101.13576264381426 4.3524470329284668L-101.43222279548662 4.1370563507080078L-101.71293563842791 3.9015102386474609L-101.97653384208697 3.6469564437866211L-102.22173328399676 3.3746349811553955L-102.4473392486574 3.0858726501464844L-102.65225238800066 2.7820761203765869L-102.83547468185442 2.4647257328033447L-102.99611349105852 2.1353673934936523L-103.13338632583636 1.7956057786941528L-103.2466237068178 1.4470961093902588L-103.33527488708513 1.0915364027023315L-103.39890737533587 0.73065876960754406L-103.43721122741717 0.36622148752212536L-103.45000000000017 7.2899732992168258E-16L-103.43721122741717 -0.36622148752212513L-103.39890737533587 -0.73065876960754383L-103.33527488708513 -1.0915364027023315L-103.2466237068178 -1.4470961093902588L-103.13338632583636 -1.7956057786941528L-102.99611349105852 -2.1353673934936523L-102.83547468185442 -2.4647257328033447L-102.65225238800066 -2.7820761203765869L-102.4473392486574 -3.0858726501464844L-102.22173328399676 -3.3746349811553955L-101.97653384208697 -3.6469564437866211L-101.71293563842791 -3.9015102386474609L-101.43222279548662 -4.1370563507080078L-101.13576264381426 -4.3524470329284668L-100.82500000000017 -4.546633243560791L-100.50144858360308 -4.7186689376831055L-100.16668457984942 -4.8677153587341309L-99.8223392486574 -4.993046760559082L-99.470089983940298 -5.094052791595459L-99.111652922630483 -5.1702408790588379L-98.748774421215231 -5.2212400436401367L-98.383222353458578 -5.2468018531799316L-98.016777646541769 -5.2468018531799316L-97.651225578785116 -5.2212400436401367L-97.288347077369863 -5.1702408790588379L-96.929910016060049 -5.094052791595459L-96.577660751342947 -4.993046760559082L-96.23331542015093 -4.8677153587341309L-95.898551416397268 -4.7186689376831055L-95.575000000000173 -4.546633243560791L-95.264237356186086 -4.3524470329284668L-94.967777204513723 -4.1370563507080078L-94.687064361572439 -3.9015102386474609L-94.423466157913381 -3.6469564437866211L-94.178266716003591 -3.3746349811553955L-93.952660751342947 -3.0858726501464844L-93.747747611999685 -2.7820761203765869L-93.564525318145925 -2.4647257328033447L-93.403886508941824 -2.1353673934936523L-93.266613674163992 -1.7956057786941528L-93.153376293182546 -1.4470961093902588L-93.064725112915212 -1.0915364027023315L-93.00109262466448 -0.73065876960754383L-92.950000000000173 -1.1998213636382833E-15" stroke="#000000" stroke-width="0.098386600613594055" stroke-linecap="round" stroke-linejoin="round" fill="none" />
            <path d="M-34 -0L-34.007307767868042 0.20926941931247711L-34.029195785522461 0.41751930117607117L-34.065557241439819 0.62373507022857666L-34.116214990615845 0.8269120454788208L-34.180922031402588 1.0260604619979858L-34.259363651275635 1.2202099561691284L-34.351157188415527 1.4084147214889526L-34.45585560798645 1.5897578001022339L-34.572948932647705 1.7633557319641113L-34.701866626739502 1.9283628463745117L-34.841980695724487 2.083975076675415L-34.992608070373535 2.2294344902038574L-35.153015613555908 2.3640322685241699L-35.322421312332153 2.4871127605438232L-35.5 2.5980761051177979L-35.684886574745178 2.6963820457458496L-35.876180171966553 2.7815515995025635L-36.07294899225235 2.8531694412231445L-36.274234294891357 2.9108872413635254L-36.479055464267731 2.954423189163208L-36.68641459941864 2.9835655689239502L-36.895301513373852 2.9981725215911865L-37.104698486626148 2.9981725215911865L-37.31358540058136 2.9835655689239502L-37.520944535732269 2.954423189163208L-37.725765705108643 2.9108872413635254L-37.92705100774765 2.8531694412231445L-38.123819828033447 2.7815515995025635L-38.315113425254822 2.6963820457458496L-38.5 2.5980761051177979L-38.677578687667847 2.4871127605438232L-38.846984386444092 2.3640322685241699L-39.007391929626465 2.2294344902038574L-39.158019304275513 2.083975076675415L-39.298133373260498 1.9283628463745117L-39.427051067352295 1.7633557319641113L-39.54414439201355 1.5897578001022339L-39.648842811584473 1.4084147214889526L-39.740636348724365 1.2202099561691284L-39.819077968597412 1.0260604619979858L-39.883785009384155 0.8269120454788208L-39.934442758560181 0.62373507022857666L-39.970804214477539 0.41751930117607117L-39.992692232131958 0.20926941931247711L-40 3.6739402930577075E-16L-39.992692232131958 -0.20926941931247711L-39.970804214477539 -0.41751930117607117L-39.934442758560181 -0.62373507022857666L-39.883785009384155 -0.8269120454788208L-39.819077968597412 -1.0260604619979858L-39.740636348724365 -1.2202099561691284L-39.648842811584473 -1.4084147214889526L-39.54414439201355 -1.5897578001022339L-39.427051067352295 -1.7633557319641113L-39.298133373260498 -1.9283628463745117L-39.158019304275513 -2.083975076675415L-39.007391929626465 -2.2294344902038574L-38.846984386444092 -2.3640322685241699L-38.677578687667847 -2.4871127605438232L-38.5 -2.5980761051177979L-38.315113425254822 -2.6963820457458496L-38.123819828033447 -2.7815515995025635L-37.92705100774765 -2.8531694412231445L-37.725765705108643 -2.9108872413635254L-37.520944535732269 -2.954423189163208L-37.31358540058136 -2.9835655689239502L-37.104698486626148 -2.9981725215911865L-36.895301513373852 -2.9981725215911865L-36.68641459941864 -2.9835655689239502L-36.479055464267731 -2.954423189163208L-36.274234294891357 -2.9108872413635254L-36.07294899225235 -2.8531694412231445L-35.876180171966553 -2.7815515995025635L-35.684886574745178 -2.6963820457458496L-35.5 -2.5980761051177979L-35.322421312332153 -2.4871127605438232L-35.153015613555908 -2.3640322685241699L-34.992608070373535 -2.2294344902038574L-34.841980695724487 -2.083975076675415L-34.701866626739502 -1.9283628463745117L-34.572948932647705 -1.7633557319641113L-34.45585560798645 -1.5897578001022339L-34.351157188415527 -1.4084147214889526L-34.259363651275635 -1.2202099561691284L-34.180922031402588 -1.0260604619979858L-34.116214990615845 -0.8269120454788208L-34.065557241439819 -0.62373507022857666L-34.029195785522461 -0.41751930117607117L-34 -7.3478805861154151E-16" stroke="#000000" stroke-width="0.098386600613594055" stroke-linecap="round" stroke-linejoin="round" fill="none" />
            <path d="M-21.070000000000121 23.570000000000007L-21.076089925766112 23.744391180276878L-21.094329900741698 23.91793275594712L-21.124630994796874 24.089779205322273L-21.166845865249755 24.259093410968788L-21.220768518447997 24.425050384998329L-21.28613645553601 24.586841650009163L-21.362630910873534 24.74367887496949L-21.449879713058593 24.894798107147224L-21.547457523346068 25.0394631099701L-21.654888935089232 25.176968998909004L-21.771650500297667 25.30664593696595L-21.897173471450927 25.427862114906318L-22.030846304893615 25.540026850700386L-22.172017760276916 25.64259392738343L-22.320000000000121 25.735063619613655L-22.474072165489318 25.816985197067268L-22.63348353624356 25.887959547042854L-22.797457523346068 25.947641201019294L-22.965195245742919 25.995739288330086L-23.135879553556563 26.03201944351197L-23.308678842783095 26.056304759979255L-23.482751257419707 26.068476982116707L-23.657248742580535 26.068476982116707L-23.831321157217147 26.056304759979255L-24.004120446443679 26.03201944351197L-24.174804754257323 25.995739288330086L-24.342542476654174 25.947641201019294L-24.506516463756682 25.887959547042854L-24.665927834510924 25.816985197067268L-24.820000000000121 25.735063619613655L-24.967982239723327 25.64259392738343L-25.109153695106627 25.540026850700386L-25.242826528549315 25.427862114906318L-25.368349499702575 25.30664593696595L-25.48511106491101 25.176968998909004L-25.592542476654174 25.0394631099701L-25.690120286941649 24.894798107147224L-25.777369089126708 24.74367887496949L-25.853863544464232 24.586841650009163L-25.919231481552245 24.425050384998329L-25.973154134750487 24.259093410968788L-26.015369005203368 24.089779205322273L-26.045670099258544 23.91793275594712L-26.06391007423413 23.744391180276878L-26.070000000000121 23.570000000000007L-26.06391007423413 23.395608819723137L-26.045670099258544 23.222067244052894L-26.015369005203368 23.050220794677742L-25.973154134750487 22.880906589031227L-25.919231481552245 22.714949615001686L-25.853863544464232 22.553158349990852L-25.777369089126708 22.396321125030525L-25.690120286941649 22.245201892852791L-25.592542476654174 22.100536890029915L-25.48511106491101 21.963031001091011L-25.368349499702575 21.833354063034065L-25.242826528549315 21.712137885093696L-25.109153695106627 21.599973149299629L-24.967982239723327 21.497406072616585L-24.820000000000121 21.40493638038636L-24.665927834510924 21.323014802932747L-24.506516463756682 21.252040452957161L-24.342542476654174 21.19235879898072L-24.174804754257323 21.144260711669929L-24.004120446443679 21.107980556488044L-23.831321157217147 21.083695240020759L-23.657248742580535 21.071523017883308L-23.482751257419707 21.071523017883308L-23.308678842783095 21.083695240020759L-23.135879553556563 21.107980556488044L-22.965195245742919 21.144260711669929L-22.797457523346068 21.19235879898072L-22.63348353624356 21.252040452957161L-22.474072165489318 21.323014802932747L-22.320000000000121 21.40493638038636L-22.172017760276916 21.497406072616585L-22.030846304893615 21.599973149299629L-21.897173471450927 21.712137885093696L-21.771650500297667 21.833354063034065L-21.654888935089232 21.963031001091011L-21.547457523346068 22.100536890029915L-21.449879713058593 22.245201892852791L-21.362630910873534 22.396321125030525L-21.28613645553601 22.553158349990852L-21.220768518447997 22.714949615001686L-21.166845865249755 22.880906589031227L-21.124630994796874 23.050220794677742L-21.094329900741698 23.222067244052894L-21.070000000000121 23.570000000000007" stroke="#000000" stroke-width="0.098386600613594055" stroke-linecap="round" stroke-linejoin="round" fill="none" />
            <path d="M26.069999999999879 23.570000000000007L26.063910074233888 23.744391180276878L26.045670099258302 23.91793275594712L26.015369005203127 24.089779205322273L25.973154134750246 24.259093410968788L25.919231481552004 24.425050384998329L25.853863544463991 24.586841650009163L25.777369089126466 24.74367887496949L25.690120286941408 24.894798107147224L25.592542476653932 25.0394631099701L25.485111064910768 25.176968998909004L25.368349499702333 25.30664593696595L25.242826528549074 25.427862114906318L25.109153695106386 25.540026850700386L24.967982239723085 25.64259392738343L24.819999999999879 25.735063619613655L24.665927834510683 25.816985197067268L24.506516463756441 25.887959547042854L24.342542476653932 25.947641201019294L24.174804754257082 25.995739288330086L24.004120446443437 26.03201944351197L23.831321157216905 26.056304759979255L23.657248742580293 26.068476982116707L23.482751257419466 26.068476982116707L23.308678842782854 26.056304759979255L23.135879553556322 26.03201944351197L22.965195245742677 25.995739288330086L22.797457523345827 25.947641201019294L22.633483536243318 25.887959547042854L22.474072165489076 25.816985197067268L22.319999999999879 25.735063619613655L22.172017760276674 25.64259392738343L22.030846304893373 25.540026850700386L21.897173471450685 25.427862114906318L21.771650500297426 25.30664593696595L21.654888935088991 25.176968998909004L21.547457523345827 25.0394631099701L21.449879713058351 24.894798107147224L21.362630910873293 24.74367887496949L21.286136455535768 24.586841650009163L21.220768518447755 24.425050384998329L21.166845865249513 24.259093410968788L21.124630994796632 24.089779205322273L21.094329900741457 23.91793275594712L21.076089925765871 23.744391180276878L21.069999999999879 23.570000000000007L21.076089925765871 23.395608819723137L21.094329900741457 23.222067244052894L21.124630994796632 23.050220794677742L21.166845865249513 22.880906589031227L21.220768518447755 22.714949615001686L21.286136455535768 22.553158349990852L21.362630910873293 22.396321125030525L21.449879713058351 22.245201892852791L21.547457523345827 22.100536890029915L21.654888935088991 21.963031001091011L21.771650500297426 21.833354063034065L21.897173471450685 21.712137885093696L22.030846304893373 21.599973149299629L22.172017760276674 21.497406072616585L22.319999999999879 21.40493638038636L22.474072165489076 21.323014802932747L22.633483536243318 21.252040452957161L22.797457523345827 21.19235879898072L22.965195245742677 21.144260711669929L23.135879553556322 21.107980556488044L23.308678842782854 21.083695240020759L23.482751257419466 21.071523017883308L23.657248742580293 21.071523017883308L23.831321157216905 21.083695240020759L24.004120446443437 21.107980556488044L24.174804754257082 21.144260711669929L24.342542476653932 21.19235879898072L24.506516463756441 21.252040452957161L24.665927834510683 21.323014802932747L24.819999999999879 21.40493638038636L24.967982239723085 21.497406072616585L25.109153695106386 21.599973149299629L25.242826528549074 21.712137885093696L25.368349499702333 21.833354063034065L25.485111064910768 21.963031001091011L25.592542476653932 22.100536890029915L25.690120286941408 22.245201892852791L25.777369089126466 22.396321125030525L25.853863544463991 22.553158349990852L25.919231481552004 22.714949615001686L25.973154134750246 22.880906589031227L26.015369005203127 23.050220794677742L26.045670099258302 23.222067244052894L26.069999999999879 23.570000000000007" stroke="#000000" stroke-width="0.098386600613594055" stroke-linecap="round" stroke-linejoin="round" fill="none" />
            <path d="M-21.070000000000114 -23.569999999999993L-21.076089925766105 -23.395608819723122L-21.094329900741691 -23.22206724405288L-21.124630994796867 -23.050220794677728L-21.166845865249748 -22.880906589031213L-21.22076851844799 -22.714949615001672L-21.286136455536003 -22.553158349990838L-21.362630910873527 -22.396321125030511L-21.449879713058586 -22.245201892852776L-21.547457523346061 -22.1005368900299L-21.654888935089225 -21.963031001090997L-21.77165050029766 -21.833354063034051L-21.89717347145092 -21.712137885093682L-22.030846304893608 -21.599973149299615L-22.172017760276908 -21.49740607261657L-22.320000000000114 -21.404936380386346L-22.474072165489311 -21.323014802932732L-22.633483536243553 -21.252040452957146L-22.797457523346061 -21.192358798980706L-22.965195245742912 -21.144260711669915L-23.135879553556556 -21.10798055648803L-23.308678842783088 -21.083695240020745L-23.4827512574197 -21.071523017883294L-23.657248742580528 -21.071523017883294L-23.83132115721714 -21.083695240020745L-24.004120446443672 -21.10798055648803L-24.174804754257316 -21.144260711669915L-24.342542476654167 -21.192358798980706L-24.506516463756675 -21.252040452957146L-24.665927834510917 -21.323014802932732L-24.820000000000114 -21.404936380386346L-24.96798223972332 -21.49740607261657L-25.10915369510662 -21.599973149299615L-25.242826528549308 -21.712137885093682L-25.368349499702568 -21.833354063034051L-25.485111064911003 -21.963031001090997L-25.592542476654167 -22.1005368900299L-25.690120286941642 -22.245201892852776L-25.777369089126701 -22.396321125030511L-25.853863544464225 -22.553158349990838L-25.919231481552238 -22.714949615001672L-25.97315413475048 -22.880906589031213L-26.015369005203361 -23.050220794677728L-26.045670099258537 -23.22206724405288L-26.063910074234123 -23.395608819723122L-26.070000000000114 -23.569999999999993L-26.063910074234123 -23.744391180276864L-26.045670099258537 -23.917932755947106L-26.015369005203361 -24.089779205322259L-25.97315413475048 -24.259093410968774L-25.919231481552238 -24.425050384998315L-25.853863544464225 -24.586841650009148L-25.777369089126701 -24.743678874969476L-25.690120286941642 -24.89479810714721L-25.592542476654167 -25.039463109970086L-25.485111064911003 -25.17696899890899L-25.368349499702568 -25.306645936965936L-25.242826528549308 -25.427862114906304L-25.10915369510662 -25.540026850700372L-24.96798223972332 -25.642593927383416L-24.820000000000114 -25.735063619613641L-24.665927834510917 -25.816985197067254L-24.506516463756675 -25.88795954704284L-24.342542476654167 -25.94764120101928L-24.174804754257316 -25.995739288330071L-24.004120446443672 -26.032019443511956L-23.83132115721714 -26.056304759979241L-23.657248742580528 -26.068476982116692L-23.4827512574197 -26.068476982116692L-23.308678842783088 -26.056304759979241L-23.135879553556556 -26.032019443511956L-22.965195245742912 -25.995739288330071L-22.797457523346061 -25.94764120101928L-22.633483536243553 -25.88795954704284L-22.474072165489311 -25.816985197067254L-22.320000000000114 -25.735063619613641L-22.172017760276908 -25.642593927383416L-22.030846304893608 -25.540026850700372L-21.89717347145092 -25.427862114906304L-21.77165050029766 -25.306645936965936L-21.654888935089225 -25.17696899890899L-21.547457523346061 -25.039463109970086L-21.449879713058586 -24.89479810714721L-21.362630910873527 -24.743678874969476L-21.286136455536003 -24.586841650009148L-21.22076851844799 -24.425050384998315L-21.166845865249748 -24.259093410968774L-21.124630994796867 -24.089779205322259L-21.094329900741691 -23.917932755947106L-21.070000000000114 -23.569999999999993" stroke="#000000" stroke-width="0.098386600613594055" stroke-linecap="round" stroke-linejoin="round" fill="none" />
            <path d="M26.069999999999887 -23.569999999999993L26.063910074233895 -23.395608819723122L26.045670099258309 -23.22206724405288L26.015369005203134 -23.050220794677728L25.973154134750253 -22.880906589031213L25.919231481552011 -22.714949615001672L25.853863544463998 -22.553158349990838L25.777369089126474 -22.396321125030511L25.690120286941415 -22.245201892852776L25.592542476653939 -22.1005368900299L25.485111064910775 -21.963031001090997L25.36834949970234 -21.833354063034051L25.242826528549081 -21.712137885093682L25.109153695106393 -21.599973149299615L24.967982239723092 -21.49740607261657L24.819999999999887 -21.404936380386346L24.66592783451069 -21.323014802932732L24.506516463756448 -21.252040452957146L24.342542476653939 -21.192358798980706L24.174804754257089 -21.144260711669915L24.004120446443444 -21.10798055648803L23.831321157216912 -21.083695240020745L23.6572487425803 -21.071523017883294L23.482751257419473 -21.071523017883294L23.308678842782861 -21.083695240020745L23.135879553556329 -21.10798055648803L22.965195245742684 -21.144260711669915L22.797457523345834 -21.192358798980706L22.633483536243325 -21.252040452957146L22.474072165489083 -21.323014802932732L22.319999999999887 -21.404936380386346L22.172017760276681 -21.49740607261657L22.03084630489338 -21.599973149299615L21.897173471450692 -21.712137885093682L21.771650500297433 -21.833354063034051L21.654888935088998 -21.963031001090997L21.547457523345834 -22.1005368900299L21.449879713058358 -22.245201892852776L21.3626309108733 -22.396321125030511L21.286136455535775 -22.553158349990838L21.220768518447763 -22.714949615001672L21.16684586524952 -22.880906589031213L21.12463099479664 -23.050220794677728L21.094329900741464 -23.22206724405288L21.076089925765878 -23.395608819723122L21.069999999999887 -23.569999999999993L21.076089925765878 -23.744391180276864L21.094329900741464 -23.917932755947106L21.12463099479664 -24.089779205322259L21.16684586524952 -24.259093410968774L21.220768518447763 -24.425050384998315L21.286136455535775 -24.586841650009148L21.3626309108733 -24.743678874969476L21.449879713058358 -24.89479810714721L21.547457523345834 -25.039463109970086L21.654888935088998 -25.17696899890899L21.771650500297433 -25.306645936965936L21.897173471450692 -25.427862114906304L22.03084630489338 -25.540026850700372L22.172017760276681 -25.642593927383416L22.319999999999887 -25.735063619613641L22.474072165489083 -25.816985197067254L22.633483536243325 -25.88795954704284L22.797457523345834 -25.94764120101928L22.965195245742684 -25.995739288330071L23.135879553556329 -26.032019443511956L23.308678842782861 -26.056304759979241L23.482751257419473 -26.068476982116692L23.6572487425803 -26.068476982116692L23.831321157216912 -26.056304759979241L24.004120446443444 -26.032019443511956L24.174804754257089 -25.995739288330071L24.342542476653939 -25.94764120101928L24.506516463756448 -25.88795954704284L24.66592783451069 -25.816985197067254L24.819999999999887 -25.735063619613641L24.967982239723092 -25.642593927383416L25.109153695106393 -25.540026850700372L25.242826528549081 -25.427862114906304L25.36834949970234 -25.306645936965936L25.485111064910775 -25.17696899890899L25.592542476653939 -25.039463109970086L25.690120286941415 -24.89479810714721L25.777369089126474 -24.743678874969476L25.853863544463998 -24.586841650009148L25.919231481552011 -24.425050384998315L25.973154134750253 -24.259093410968774L26.015369005203134 -24.089779205322259L26.045670099258309 -23.917932755947106L26.069999999999887 -23.569999999999993" stroke="#000000" stroke-width="0.098386600613594055" stroke-linecap="round" stroke-linejoin="round" fill="none" />
            <path d="M-13.5 15.5L-13.504871845245361 15.639512941241264L-13.519463896751404 15.778346210718155L-13.543704748153687 15.915823370218277L-13.577476620674133 16.051274716854095L-13.620614767074585 16.184040307998657L-13.672909140586853 16.313473284244537L-13.734104871749878 16.438943147659302L-13.803903818130493 16.559838533401489L-13.8819659948349 16.675570487976074L-13.967911124229431 16.785575270652771L-14.061320424079895 16.88931679725647L-14.161738753318787 16.986289620399475L-14.268676996231079 17.076021552085876L-14.381614208221436 17.158075094223022L-14.5 17.232050776481628L-14.623257696628571 17.297588109970093L-14.75078684091568 17.354367733001709L-14.8819659948349 17.402113080024719L-15.016156196594238 17.44059145450592L-15.152703642845154 17.469615459442139L-15.290943071246147 17.489043831825256L-15.430201008915901 17.498781681060791L-15.569798991084099 17.498781681060791L-15.709056928753853 17.489043831825256L-15.847296357154846 17.469615459442139L-15.983843803405762 17.44059145450592L-16.1180340051651 17.402113080024719L-16.24921315908432 17.354367733001709L-16.376742303371429 17.297588109970093L-16.5 17.232050776481628L-16.618385791778564 17.158075094223022L-16.731323003768921 17.076021552085876L-16.838261246681213 16.986289620399475L-16.938679575920105 16.88931679725647L-17.032088875770569 16.785575270652771L-17.1180340051651 16.675570487976074L-17.196096181869507 16.559838533401489L-17.265895128250122 16.438943147659302L-17.327090859413147 16.313473284244537L-17.379385232925415 16.184040307998657L-17.422523379325867 16.051274716854095L-17.456295251846313 15.915823370218277L-17.480536103248596 15.778346210718155L-17.495128154754639 15.639512941241264L-17.5 15.5L-17.495128154754639 15.360487058758736L-17.480536103248596 15.221653789281845L-17.456295251846313 15.084176629781723L-17.422523379325867 14.948725283145905L-17.379385232925415 14.815959692001343L-17.327090859413147 14.686526715755463L-17.265895128250122 14.561056852340698L-17.196096181869507 14.440161466598511L-17.1180340051651 14.324429512023926L-17.032088875770569 14.214424729347229L-16.938679575920105 14.11068320274353L-16.838261246681213 14.013710379600525L-16.731323003768921 13.923978447914124L-16.618385791778564 13.841924905776978L-16.5 13.767949223518372L-16.376742303371429 13.702411890029907L-16.24921315908432 13.645632266998291L-16.1180340051651 13.597886919975281L-15.983843803405762 13.55940854549408L-15.847296357154846 13.530384540557861L-15.709056928753853 13.510956168174744L-15.569798991084099 13.501218318939209L-15.430201008915901 13.501218318939209L-15.290943071246147 13.510956168174744L-15.152703642845154 13.530384540557861L-15.016156196594238 13.55940854549408L-14.8819659948349 13.597886919975281L-14.75078684091568 13.645632266998291L-14.623257696628571 13.702411890029907L-14.5 13.767949223518372L-14.381614208221436 13.841924905776978L-14.268676996231079 13.923978447914124L-14.161738753318787 14.013710379600525L-14.061320424079895 14.11068320274353L-13.967911124229431 14.214424729347229L-13.8819659948349 14.324429512023926L-13.803903818130493 14.440161466598511L-13.734104871749878 14.561056852340698L-13.672909140586853 14.686526715755463L-13.620614767074585 14.815959692001343L-13.577476620674133 14.948725283145905L-13.543704748153687 15.084176629781723L-13.519463896751404 15.221653789281845L-13.5 15.5" stroke="#000000" stroke-width="0.098386600613594055" stroke-linecap="round" stroke-linejoin="round" fill="none" />
            <path d="M17.5 15.5L17.495128154754639 15.639512941241264L17.480536103248596 15.778346210718155L17.456295251846313 15.915823370218277L17.422523379325867 16.051274716854095L17.379385232925415 16.184040307998657L17.327090859413147 16.313473284244537L17.265895128250122 16.438943147659302L17.196096181869507 16.559838533401489L17.1180340051651 16.675570487976074L17.032088875770569 16.785575270652771L16.938679575920105 16.88931679725647L16.838261246681213 16.986289620399475L16.731323003768921 17.076021552085876L16.618385791778564 17.158075094223022L16.5 17.232050776481628L16.376742303371429 17.297588109970093L16.24921315908432 17.354367733001709L16.1180340051651 17.402113080024719L15.983843803405762 17.44059145450592L15.847296357154846 17.469615459442139L15.709056928753853 17.489043831825256L15.569798991084099 17.498781681060791L15.430201008915901 17.498781681060791L15.290943071246147 17.489043831825256L15.152703642845154 17.469615459442139L15.016156196594238 17.44059145450592L14.8819659948349 17.402113080024719L14.75078684091568 17.354367733001709L14.623257696628571 17.297588109970093L14.5 17.232050776481628L14.381614208221436 17.158075094223022L14.268676996231079 17.076021552085876L14.161738753318787 16.986289620399475L14.061320424079895 16.88931679725647L13.967911124229431 16.785575270652771L13.8819659948349 16.675570487976074L13.803903818130493 16.559838533401489L13.734104871749878 16.438943147659302L13.672909140586853 16.313473284244537L13.620614767074585 16.184040307998657L13.577476620674133 16.051274716854095L13.543704748153687 15.915823370218277L13.519463896751404 15.778346210718155L13.504871845245361 15.639512941241264L13.5 15.5L13.504871845245361 15.360487058758736L13.519463896751404 15.221653789281845L13.543704748153687 15.084176629781723L13.577476620674133 14.948725283145905L13.620614767074585 14.815959692001343L13.672909140586853 14.686526715755463L13.734104871749878 14.561056852340698L13.803903818130493 14.440161466598511L13.8819659948349 14.324429512023926L13.967911124229431 14.214424729347229L14.061320424079895 14.11068320274353L14.161738753318787 14.013710379600525L14.268676996231079 13.923978447914124L14.381614208221436 13.841924905776978L14.5 13.767949223518372L14.623257696628571 13.702411890029907L14.75078684091568 13.645632266998291L14.8819659948349 13.597886919975281L15.016156196594238 13.55940854549408L15.152703642845154 13.530384540557861L15.290943071246147 13.510956168174744L15.430201008915901 13.501218318939209L15.569798991084099 13.501218318939209L15.709056928753853 13.510956168174744L15.847296357154846 13.530384540557861L15.983843803405762 13.55940854549408L16.1180340051651 13.597886919975281L16.24921315908432 13.645632266998291L16.376742303371429 13.702411890029907L16.5 13.767949223518372L16.618385791778564 13.841924905776978L16.731323003768921 13.923978447914124L16.838261246681213 14.013710379600525L16.938679575920105 14.11068320274353L17.032088875770569 14.214424729347229L17.1180340051651 14.324429512023926L17.196096181869507 14.440161466598511L17.265895128250122 14.561056852340698L17.327090859413147 14.686526715755463L17.379385232925415 14.815959692001343L17.422523379325867 14.948725283145905L17.456295251846313 15.084176629781723L17.480536103248596 15.221653789281845L17.5 15.5" stroke="#000000" stroke-width="0.098386600613594055" stroke-linecap="round" stroke-linejoin="round" fill="none" />
            <path d="M-13.5 -15.5L-13.504871845245361 -15.360487058758736L-13.519463896751404 -15.221653789281845L-13.543704748153687 -15.084176629781723L-13.577476620674133 -14.948725283145905L-13.620614767074585 -14.815959692001343L-13.672909140586853 -14.686526715755463L-13.734104871749878 -14.561056852340698L-13.803903818130493 -14.440161466598511L-13.8819659948349 -14.324429512023926L-13.967911124229431 -14.214424729347229L-14.061320424079895 -14.11068320274353L-14.161738753318787 -14.013710379600525L-14.268676996231079 -13.923978447914124L-14.381614208221436 -13.841924905776978L-14.5 -13.767949223518372L-14.623257696628571 -13.702411890029907L-14.75078684091568 -13.645632266998291L-14.8819659948349 -13.597886919975281L-15.016156196594238 -13.55940854549408L-15.152703642845154 -13.530384540557861L-15.290943071246147 -13.510956168174744L-15.430201008915901 -13.501218318939209L-15.569798991084099 -13.501218318939209L-15.709056928753853 -13.510956168174744L-15.847296357154846 -13.530384540557861L-15.983843803405762 -13.55940854549408L-16.1180340051651 -13.597886919975281L-16.24921315908432 -13.645632266998291L-16.376742303371429 -13.702411890029907L-16.5 -13.767949223518372L-16.618385791778564 -13.841924905776978L-16.731323003768921 -13.923978447914124L-16.838261246681213 -14.013710379600525L-16.938679575920105 -14.11068320274353L-17.032088875770569 -14.214424729347229L-17.1180340051651 -14.324429512023926L-17.196096181869507 -14.440161466598511L-17.265895128250122 -14.561056852340698L-17.327090859413147 -14.686526715755463L-17.379385232925415 -14.815959692001343L-17.422523379325867 -14.948725283145905L-17.456295251846313 -15.084176629781723L-17.480536103248596 -15.221653789281845L-17.495128154754639 -15.360487058758736L-17.5 -15.5L-17.495128154754639 -15.639512941241264L-17.480536103248596 -15.778346210718155L-17.456295251846313 -15.915823370218277L-17.422523379325867 -16.051274716854095L-17.379385232925415 -16.184040307998657L-17.327090859413147 -16.313473284244537L-17.265895128250122 -16.438943147659302L-17.196096181869507 -16.559838533401489L-17.1180340051651 -16.675570487976074L-17.032088875770569 -16.785575270652771L-16.938679575920105 -16.88931679725647L-16.838261246681213 -16.986289620399475L-16.731323003768921 -17.076021552085876L-16.618385791778564 -17.158075094223022L-16.5 -17.232050776481628L-16.376742303371429 -17.297588109970093L-16.24921315908432 -17.354367733001709L-16.1180340051651 -17.402113080024719L-15.983843803405762 -17.44059145450592L-15.847296357154846 -17.469615459442139L-15.709056928753853 -17.489043831825256L-15.569798991084099 -17.498781681060791L-15.430201008915901 -17.498781681060791L-15.290943071246147 -17.489043831825256L-15.152703642845154 -17.469615459442139L-15.016156196594238 -17.44059145450592L-14.8819659948349 -17.402113080024719L-14.75078684091568 -17.354367733001709L-14.623257696628571 -17.297588109970093L-14.5 -17.232050776481628L-14.381614208221436 -17.158075094223022L-14.268676996231079 -17.076021552085876L-14.161738753318787 -16.986289620399475L-14.061320424079895 -16.88931679725647L-13.967911124229431 -16.785575270652771L-13.8819659948349 -16.675570487976074L-13.803903818130493 -16.559838533401489L-13.734104871749878 -16.438943147659302L-13.672909140586853 -16.313473284244537L-13.620614767074585 -16.184040307998657L-13.577476620674133 -16.051274716854095L-13.543704748153687 -15.915823370218277L-13.519463896751404 -15.778346210718155L-13.5 -15.5" stroke="#000000" stroke-width="0.098386600613594055" stroke-linecap="round" stroke-linejoin="round" fill="none" />
            <path d="M17.5 -15.5L17.495128154754639 -15.360487058758736L17.480536103248596 -15.221653789281845L17.456295251846313 -15.084176629781723L17.422523379325867 -14.948725283145905L17.379385232925415 -14.815959692001343L17.327090859413147 -14.686526715755463L17.265895128250122 -14.561056852340698L17.196096181869507 -14.440161466598511L17.1180340051651 -14.324429512023926L17.032088875770569 -14.214424729347229L16.938679575920105 -14.11068320274353L16.838261246681213 -14.013710379600525L16.731323003768921 -13.923978447914124L16.618385791778564 -13.841924905776978L16.5 -13.767949223518372L16.376742303371429 -13.702411890029907L16.24921315908432 -13.645632266998291L16.1180340051651 -13.597886919975281L15.983843803405762 -13.55940854549408L15.847296357154846 -13.530384540557861L15.709056928753853 -13.510956168174744L15.569798991084099 -13.501218318939209L15.430201008915901 -13.501218318939209L15.290943071246147 -13.510956168174744L15.152703642845154 -13.530384540557861L15.016156196594238 -13.55940854549408L14.8819659948349 -13.597886919975281L14.75078684091568 -13.645632266998291L14.623257696628571 -13.702411890029907L14.5 -13.767949223518372L14.381614208221436 -13.841924905776978L14.268676996231079 -13.923978447914124L14.161738753318787 -14.013710379600525L14.061320424079895 -14.11068320274353L13.967911124229431 -14.214424729347229L13.8819659948349 -14.324429512023926L13.803903818130493 -14.440161466598511L13.734104871749878 -14.561056852340698L13.672909140586853 -14.686526715755463L13.620614767074585 -14.815959692001343L13.577476620674133 -14.948725283145905L13.543704748153687 -15.084176629781723L13.519463896751404 -15.221653789281845L13.504871845245361 -15.360487058758736L13.5 -15.5L13.504871845245361 -15.639512941241264L13.519463896751404 -15.778346210718155L13.543704748153687 -15.915823370218277L13.577476620674133 -16.051274716854095L13.620614767074585 -16.184040307998657L13.672909140586853 -16.313473284244537L13.734104871749878 -16.438943147659302L13.803903818130493 -16.559838533401489L13.8819659948349 -16.675570487976074L13.967911124229431 -16.785575270652771L14.061320424079895 -16.88931679725647L14.161738753318787 -16.986289620399475L14.268676996231079 -17.076021552085876L14.381614208221436 -17.158075094223022L14.5 -17.232050776481628L14.623257696628571 -17.297588109970093L14.75078684091568 -17.354367733001709L14.8819659948349 -17.402113080024719L15.016156196594238 -17.44059145450592L15.152703642845154 -17.469615459442139L15.290943071246147 -17.489043831825256L15.430201008915901 -17.498781681060791L15.569798991084099 -17.498781681060791L15.709056928753853 -17.489043831825256L15.847296357154846 -17.469615459442139L15.983843803405762 -17.44059145450592L16.1180340051651 -17.402113080024719L16.24921315908432 -17.354367733001709L16.376742303371429 -17.297588109970093L16.5 -17.232050776481628L16.618385791778564 -17.158075094223022L16.731323003768921 -17.076021552085876L16.838261246681213 -16.986289620399475L16.938679575920105 -16.88931679725647L17.032088875770569 -16.785575270652771L17.1180340051651 -16.675570487976074L17.196096181869507 -16.559838533401489L17.265895128250122 -16.438943147659302L17.327090859413147 -16.313473284244537L17.379385232925415 -16.184040307998657L17.422523379325867 -16.051274716854095L17.456295251846313 -15.915823370218277L17.480536103248596 -15.778346210718155L17.5 -15.5" stroke="#000000" stroke-width="0.098386600613594055" stroke-linecap="round" stroke-linejoin="round" fill="none" />
            <path d="M-43.549066078056512 -11L-30.200000000000109 -11" stroke="#000000" stroke-width="0.098386600613594055" stroke-linecap="round" stroke-linejoin="round" fill="none" />
            <path d="M-43.549066078056512 -11L-43.688579019297777 -11.004871845245361L-43.827412288774667 -11.019463896751404L-43.964889448274789 -11.043704748153687L-44.100340794910608 -11.077476620674133L-44.233106386055169 -11.120614767074585L-44.36253936230105 -11.172909140586853L-44.488009225715814 -11.234104871749878L-44.608904611458001 -11.303903818130493L-44.724636566032586 -11.3819659948349L-44.834641348709283 -11.467911124229431L-44.938382875312982 -11.561320424079895L-45.035355698455987 -11.661738753318787L-45.125087630142389 -11.768676996231079L-45.207141172279535 -11.881614208221436L-45.281116854538141 -12L-45.346654188026605 -12.123257696628571L-45.403433811058221 -12.25078684091568L-45.451179158081231 -12.3819659948349L-45.489657532562433 -12.516156196594238L-45.518681537498651 -12.652703642845154L-45.538109909881769 -12.790943071246147L-45.549066078056512 -13" stroke="#000000" stroke-width="0.098386600613594055" stroke-linecap="round" stroke-linejoin="round" fill="none" />
            <path d="M-45.549066078056512 -12.999999999999984L-45.549066078056512 -18.199999999999989" stroke="#000000" stroke-width="0.098386600613594055" stroke-linecap="round" stroke-linejoin="round" fill="none" />
            <path d="M-45.549066078056512 -18.199999999999989L-45.573425781120477 -18.897564721107482L-45.646385681022821 -19.591731023788451L-45.767590057243524 -20.279116821289062L-45.936449539055047 -20.956373643875121L-46.152140151848016 -21.620201539993285L-46.413611900200067 -22.26736660003662L-46.719589721550165 -22.894715499877929L-47.068584930290399 -23.499192428588866L-47.458896171440301 -24.07785243988037L-47.888621818412958 -24.627875995635986L-48.355668079246698 -25.146583747863769L-48.857759963859735 -25.631448459625243L-49.392451297630487 -26.080107402801513L-49.95713711916369 -26.490375709533691L-50.549066078056512 -26.860254478454589L-51.165354740013299 -27.187940788269042L-51.803000223030267 -27.471838188171386L-52.458896171440301 -27.710564804077148L-53.129847061027704 -27.902957153320312L-53.812584292282281 -28.048077774047851L-54.503781449188409 -28.145219039916991L-55.549066078056512 -28.199999999999999" stroke="#000000" stroke-width="0.098386600613594055" stroke-linecap="round" stroke-linejoin="round" fill="none" />
            <path d="M-55.549066078056512 -28.200000000000003L-108.2000000000003 -28.200000000000003" stroke="#000000" stroke-width="0.098386600613594055" stroke-linecap="round" stroke-linejoin="round" fill="none" />
            <path d="M-118.2000000000003 -18.199999999999999L-118.17564029693634 -18.897564721107482L-118.10268039703399 -19.591731023788451L-117.98147602081329 -20.279116821289062L-117.81261653900177 -20.956373643875121L-117.5969259262088 -21.620201539993285L-117.33545417785675 -22.26736660003662L-117.02947635650665 -22.894715499877929L-116.68048114776641 -23.499192428588866L-116.29016990661651 -24.07785243988037L-115.86044425964386 -24.627875995635986L-115.39339799881012 -25.146583747863769L-114.89130611419708 -25.631448459625243L-114.35661478042633 -26.080107402801513L-113.79192895889312 -26.490375709533691L-113.2000000000003 -26.860254478454589L-112.58371133804351 -27.187940788269042L-111.94606585502655 -27.471838188171386L-111.29016990661651 -27.710564804077148L-110.61921901702911 -27.902957153320312L-109.93648178577453 -28.048077774047851L-109.2452846288684 -28.145219039916991L-108.2000000000003 -28.199999999999999" stroke="#000000" stroke-width="0.098386600613594055" stroke-linecap="round" stroke-linejoin="round" fill="none" />
            <path d="M-118.20000000000029 -18.199999999999957L-118.20000000000014 18.200000000000042" stroke="#000000" stroke-width="0.098386600613594055" stroke-linecap="round" stroke-linejoin="round" fill="none" />
            <path d="M-108.20000000000014 28.199999999999996L-108.89756472110763 28.175640296936031L-109.5917310237886 28.102680397033687L-110.27911682128921 27.981476020812984L-110.95637364387527 27.812616539001461L-111.62020153999343 27.596925926208492L-112.26736660003677 27.335454177856441L-112.89471549987807 27.029476356506343L-113.49919242858901 26.680481147766109L-114.07785243988052 26.290169906616207L-114.62787599563613 25.86044425964355L-115.14658374786391 25.39339799880981L-115.63144845962539 24.891306114196773L-116.08010740280166 24.356614780426021L-116.49037570953384 23.791928958892818L-116.86025447845473 23.199999999999996L-117.18794078826919 22.583711338043209L-117.47183818817153 21.946065855026241L-117.71056480407729 21.290169906616207L-117.90295715332046 20.619219017028804L-118.048077774048 19.936481785774227L-118.14521903991714 19.245284628868099L-118.20000000000014 18.199999999999996" stroke="#000000" stroke-width="0.098386600613594055" stroke-linecap="round" stroke-linejoin="round" fill="none" />
            <path d="M-108.20000000000014 28.199999999999999L-55.549066078056505 28.200000000000003" stroke="#000000" stroke-width="0.098386600613594055" stroke-linecap="round" stroke-linejoin="round" fill="none" />
            <path d="M-45.549066078056505 18.200000000000003L-45.57342578112047 18.897564721107482L-45.646385681022814 19.591731023788451L-45.767590057243517 20.279116821289062L-45.93644953905504 20.956373643875121L-46.152140151848009 21.620201539993285L-46.41361190020006 22.26736660003662L-46.719589721550157 22.894715499877929L-47.068584930290392 23.499192428588866L-47.458896171440294 24.07785243988037L-47.88862181841295 24.627875995635986L-48.355668079246691 25.146583747863769L-48.857759963859728 25.631448459625243L-49.39245129763048 26.080107402801513L-49.957137119163683 26.490375709533691L-50.549066078056505 26.860254478454589L-51.165354740013292 27.187940788269042L-51.80300022303026 27.471838188171386L-52.458896171440294 27.710564804077148L-53.129847061027696 27.902957153320312L-53.812584292282274 28.048077774047851L-54.503781449188402 28.145219039916991L-55.549066078056505 28.199999999999999" stroke="#000000" stroke-width="0.098386600613594055" stroke-linecap="round" stroke-linejoin="round" fill="none" />
            <path d="M-45.549066078056505 18.200000000000003L-45.549066078056505 13.000000000000004" stroke="#000000" stroke-width="0.098386600613594055" stroke-linecap="round" stroke-linejoin="round" fill="none" />
            <path d="M-45.549066078056505 13L-45.544194232811144 12.860487058758736L-45.529602181305101 12.721653789281845L-45.505361329902819 12.584176629781723L-45.471589457382372 12.448725283145905L-45.42845131098192 12.315959692001343L-45.376156937469652 12.186526715755463L-45.314961206306627 12.061056852340698L-45.245162259926012 11.940161466598511L-45.167100083221605 11.824429512023926L-45.081154953827074 11.714424729347229L-44.98774565397661 11.61068320274353L-44.887327324737718 11.513710379600525L-44.780389081825426 11.423978447914124L-44.66745186983507 11.341924905776978L-44.549066078056505 11.267949223518372L-44.425808381427935 11.202411890029907L-44.298279237140825 11.145632266998291L-44.167100083221605 11.097886919975281L-44.032909881462267 11.05940854549408L-43.896362435211351 11.030384540557861L-43.758123006810358 11.010956168174744L-43.549066078056505 11" stroke="#000000" stroke-width="0.098386600613594055" stroke-linecap="round" stroke-linejoin="round" fill="none" />
            <path d="M-30.200000000000109 11L-43.549066078056505 11" stroke="#000000" stroke-width="0.098386600613594055" stroke-linecap="round" stroke-linejoin="round" fill="none" />
            <path d="M-28.200000000000109 13.000000000000002L-28.204871845245471 12.860487058758737L-28.219463896751513 12.721653789281847L-28.243704748153796 12.584176629781725L-28.277476620674243 12.448725283145906L-28.320614767074694 12.315959692001345L-28.372909140586962 12.186526715755464L-28.434104871749987 12.0610568523407L-28.503903818130603 11.940161466598513L-28.581965994835009 11.824429512023928L-28.667911124229541 11.714424729347231L-28.761320424080004 11.610683202743532L-28.861738753318896 11.513710379600527L-28.968676996231189 11.423978447914125L-29.081614208221545 11.341924905776979L-29.200000000000109 11.267949223518373L-29.32325769662868 11.202411890029909L-29.450786840915789 11.145632266998293L-29.581965994835009 11.097886919975283L-29.716156196594348 11.059408545494081L-29.852703642845263 11.030384540557863L-29.990943071246257 11.010956168174745L-30.200000000000109 11.000000000000002" stroke="#000000" stroke-width="0.098386600613594055" stroke-linecap="round" stroke-linejoin="round" fill="none" />
            <path d="M-28.200000000000109 26.200000000000003L-28.200000000000109 13.000000000000002" stroke="#000000" stroke-width="0.098386600613594055" stroke-linecap="round" stroke-linejoin="round" fill="none" />
            <path d="M-26.200000000000113 28.200000000000003L-26.339512941241377 28.195128154754642L-26.478346210718268 28.180536103248599L-26.61582337021839 28.156295251846316L-26.751274716854208 28.12252337932587L-26.88404030799877 28.079385232925418L-27.01347328424465 28.02709085941315L-27.138943147659415 27.965895128250125L-27.259838533401602 27.89609618186951L-27.375570487976187 27.818034005165103L-27.485575270652884 27.732088875770572L-27.589316797256583 27.638679575920108L-27.686289620399588 27.538261246681216L-27.776021552085989 27.431323003768924L-27.858075094223135 27.318385791778567L-27.932050776481741 27.200000000000003L-27.997588109970206 27.076742303371432L-28.054367733001822 26.949213159084323L-28.102113080024832 26.818034005165103L-28.140591454506033 26.683843803405765L-28.169615459442252 26.547296357154849L-28.189043831825369 26.409056928753856L-28.200000000000113 26.200000000000003" stroke="#000000" stroke-width="0.098386600613594055" stroke-linecap="round" stroke-linejoin="round" fill="none" />
            <path d="M26.200000000000106 28.199999999999999L-26.200000000000113 28.199999999999999" stroke="#000000" stroke-width="0.098386600613594055" stroke-linecap="round" stroke-linejoin="round" fill="none" />
            <path d="M28.200000000000106 26.200000000000003L28.195128154754745 26.339512941241267L28.180536103248702 26.478346210718158L28.156295251846419 26.61582337021828L28.122523379325973 26.751274716854098L28.079385232925521 26.88404030799866L28.027090859413253 27.01347328424454L27.965895128250228 27.138943147659305L27.896096181869613 27.259838533401492L27.818034005165206 27.375570487976077L27.732088875770675 27.485575270652774L27.638679575920211 27.589316797256473L27.538261246681319 27.686289620399478L27.431323003769027 27.776021552085879L27.31838579177867 27.858075094223025L27.200000000000106 27.932050776481631L27.076742303371535 27.997588109970096L26.949213159084426 28.054367733001712L26.818034005165206 28.102113080024722L26.683843803405868 28.140591454505923L26.547296357154952 28.169615459442142L26.409056928753959 28.189043831825259L26.200000000000106 28.200000000000003" stroke="#000000" stroke-width="0.098386600613594055" stroke-linecap="round" stroke-linejoin="round" fill="none" />
            <path d="M28.200000000000106 -26.200000000000003L28.200000000000106 26.200000000000003" stroke="#000000" stroke-width="0.098386600613594055" stroke-linecap="round" stroke-linejoin="round" fill="none" />
            <path d="M28.200000000000106 -26.200000000000003L28.195128154754745 -26.339512941241267L28.180536103248702 -26.478346210718158L28.156295251846419 -26.61582337021828L28.122523379325973 -26.751274716854098L28.079385232925521 -26.88404030799866L28.027090859413253 -27.01347328424454L27.965895128250228 -27.138943147659305L27.896096181869613 -27.259838533401492L27.818034005165206 -27.375570487976077L27.732088875770675 -27.485575270652774L27.638679575920211 -27.589316797256473L27.538261246681319 -27.686289620399478L27.431323003769027 -27.776021552085879L27.31838579177867 -27.858075094223025L27.200000000000106 -27.932050776481631L27.076742303371535 -27.997588109970096L26.949213159084426 -28.054367733001712L26.818034005165206 -28.102113080024722L26.683843803405868 -28.140591454505923L26.547296357154952 -28.169615459442142L26.409056928753959 -28.189043831825259L26.200000000000106 -28.200000000000003" stroke="#000000" stroke-width="0.098386600613594055" stroke-linecap="round" stroke-linejoin="round" fill="none" />
            <path d="M-26.200000000000113 -28.199999999999999L26.200000000000106 -28.199999999999999" stroke="#000000" stroke-width="0.098386600613594055" stroke-linecap="round" stroke-linejoin="round" fill="none" />
            <path d="M-28.200000000000113 -26.200000000000003L-28.195128154754752 -26.339512941241267L-28.180536103248709 -26.478346210718158L-28.156295251846426 -26.61582337021828L-28.12252337932598 -26.751274716854098L-28.079385232925528 -26.88404030799866L-28.02709085941326 -27.01347328424454L-27.965895128250235 -27.138943147659305L-27.89609618186962 -27.259838533401492L-27.818034005165213 -27.375570487976077L-27.732088875770682 -27.485575270652774L-27.638679575920218 -27.589316797256473L-27.538261246681326 -27.686289620399478L-27.431323003769034 -27.776021552085879L-27.318385791778677 -27.858075094223025L-27.200000000000113 -27.932050776481631L-27.076742303371542 -27.997588109970096L-26.949213159084433 -28.054367733001712L-26.818034005165213 -28.102113080024722L-26.683843803405875 -28.140591454505923L-26.547296357154959 -28.169615459442142L-26.409056928753966 -28.189043831825259L-26.200000000000113 -28.200000000000003" stroke="#000000" stroke-width="0.098386600613594055" stroke-linecap="round" stroke-linejoin="round" fill="none" />
            <path d="M-28.200000000000109 -13L-28.200000000000109 -26.200000000000003" stroke="#000000" stroke-width="0.098386600613594055" stroke-linecap="round" stroke-linejoin="round" fill="none" />
            <path d="M-28.200000000000109 -13L-28.204871845245471 -12.860487058758736L-28.219463896751513 -12.721653789281845L-28.243704748153796 -12.584176629781723L-28.277476620674243 -12.448725283145905L-28.320614767074694 -12.315959692001343L-28.372909140586962 -12.186526715755463L-28.434104871749987 -12.061056852340698L-28.503903818130603 -11.940161466598511L-28.581965994835009 -11.824429512023926L-28.667911124229541 -11.714424729347229L-28.761320424080004 -11.61068320274353L-28.861738753318896 -11.513710379600525L-28.968676996231189 -11.423978447914124L-29.081614208221545 -11.341924905776978L-29.200000000000109 -11.267949223518372L-29.32325769662868 -11.202411890029907L-29.450786840915789 -11.145632266998291L-29.581965994835009 -11.097886919975281L-29.716156196594348 -11.05940854549408L-29.852703642845263 -11.030384540557861L-29.990943071246257 -11.010956168174744L-30.200000000000109 -11" stroke="#000000" stroke-width="0.098386600613594055" stroke-linecap="round" stroke-linejoin="round" fill="none" />
            <path d="M2 -0L1.9951281547546387 0.13951294124126434L1.9805361032485962 0.27834621071815491L1.9562952518463135 0.41582337021827698L1.9225233793258667 0.55127471685409546L1.879385232925415 0.68404030799865723L1.827090859413147 0.81347328424453735L1.7658951282501221 0.93894314765930176L1.6960961818695068 1.0598385334014893L1.6180340051651001 1.1755704879760742L1.5320888757705688 1.285575270652771L1.438679575920105 1.3893167972564697L1.3382612466812134 1.4862896203994751L1.2313230037689209 1.5760215520858765L1.1183857917785645 1.6580750942230225L1 1.7320507764816284L0.87674230337142944 1.7975881099700928L0.74921315908432007 1.854367733001709L0.6180340051651001 1.9021130800247192L0.48384380340576172 1.9405914545059204L0.34729635715484619 1.9696154594421387L0.20905692875385284 1.9890438318252563L0.069798991084098816 1.998781681060791L-0.069798991084098816 1.998781681060791L-0.20905692875385284 1.9890438318252563L-0.34729635715484619 1.9696154594421387L-0.48384380340576172 1.9405914545059204L-0.6180340051651001 1.9021130800247192L-0.74921315908432007 1.854367733001709L-0.87674230337142944 1.7975881099700928L-1 1.7320507764816284L-1.1183857917785645 1.6580750942230225L-1.2313230037689209 1.5760215520858765L-1.3382612466812134 1.4862896203994751L-1.438679575920105 1.3893167972564697L-1.5320888757705688 1.285575270652771L-1.6180340051651001 1.1755704879760742L-1.6960961818695068 1.0598385334014893L-1.7658951282501221 0.93894314765930176L-1.827090859413147 0.81347328424453735L-1.879385232925415 0.68404030799865723L-1.9225233793258667 0.55127471685409546L-1.9562952518463135 0.41582337021827698L-1.9805361032485962 0.27834621071815491L-1.9951281547546387 0.13951294124126434L-2 2.4492937051703357E-16L-1.9951281547546387 -0.13951294124126434L-1.9805361032485962 -0.27834621071815491L-1.9562952518463135 -0.41582337021827698L-1.9225233793258667 -0.55127471685409546L-1.879385232925415 -0.68404030799865723L-1.827090859413147 -0.81347328424453735L-1.7658951282501221 -0.93894314765930176L-1.6960961818695068 -1.0598385334014893L-1.6180340051651001 -1.1755704879760742L-1.5320888757705688 -1.285575270652771L-1.438679575920105 -1.3893167972564697L-1.3382612466812134 -1.4862896203994751L-1.2313230037689209 -1.5760215520858765L-1.1183857917785645 -1.6580750942230225L-1 -1.7320507764816284L-0.87674230337142944 -1.7975881099700928L-0.74921315908432007 -1.854367733001709L-0.6180340051651001 -1.9021130800247192L-0.48384380340576172 -1.9405914545059204L-0.34729635715484619 -1.9696154594421387L-0.20905692875385284 -1.9890438318252563L-0.069798991084098816 -1.998781681060791L0.069798991084098816 -1.998781681060791L0.20905692875385284 -1.9890438318252563L0.34729635715484619 -1.9696154594421387L0.48384380340576172 -1.9405914545059204L0.6180340051651001 -1.9021130800247192L0.74921315908432007 -1.854367733001709L0.87674230337142944 -1.7975881099700928L1 -1.7320507764816284L1.1183857917785645 -1.6580750942230225L1.2313230037689209 -1.5760215520858765L1.3382612466812134 -1.4862896203994751L1.438679575920105 -1.3893167972564697L1.5320888757705688 -1.285575270652771L1.6180340051651001 -1.1755704879760742L1.6960961818695068 -1.0598385334014893L1.7658951282501221 -0.93894314765930176L1.827090859413147 -0.81347328424453735L1.879385232925415 -0.68404030799865723L1.9225233793258667 -0.55127471685409546L1.9562952518463135 -0.41582337021827698L1.9805361032485962 -0.27834621071815491L2 -4.8985874103406714E-16" stroke="#000000" stroke-width="0.098386600613594055" stroke-linecap="round" stroke-linejoin="round" fill="none" />
    </g>
</g>
</svg>