<?xml version="1.0" encoding="UTF-8"?>
<svg xmlns="http://www.w3.org/2000/svg" width="800.000" height="600.000" viewBox="0.0 0.0 800.000 600.000" version="1.1">
  <desc>Produce by Acme CAD Converter</desc>
<path d="M 86.93 393.74 A 2.451 2.451 0 1 0 84.48 391.29"
fill="none" stroke="black" stroke-width="0.5"/>
<path d="M86.93 439.16L86.93 393.74Z"
fill="none" stroke="black" stroke-width="0.5"/>
<path d="M 84.48 441.62 A 2.451 2.451 0 1 0 86.93 439.16"
fill="none" stroke="black" stroke-width="0.5"/>
<path d="M68.46 441.62L84.48 441.62"
fill="none" stroke="black" stroke-width="0.5"/>
<path d="M 66.01 439.16 A 2.451 2.451 0 1 0 68.46 441.62"
fill="none" stroke="black" stroke-width="0.5"/>
<path d="M66.01 393.74L66.01 439.16Z"
fill="none" stroke="black" stroke-width="0.5"/>
<path d="M 68.46 391.29 A 2.451 2.451 0 1 0 66.01 393.74"
fill="none" stroke="black" stroke-width="0.5"/>
<path d="M84.48 391.29L68.46 391.29"
fill="none" stroke="black" stroke-width="0.5"/>
<path d="M 699.18 141.03 A 2.451 2.451 0 1 0 696.73 143.48"
fill="none" stroke="black" stroke-width="0.5"/>
<path d="M715.2 141.03L699.18 141.03"
fill="none" stroke="black" stroke-width="0.5"/>
<path d="M 717.65 143.48 A 2.451 2.451 0 1 0 715.2 141.03"
fill="none" stroke="black" stroke-width="0.5"/>
<path d="M717.65 188.91L717.65 143.48Z"
fill="none" stroke="black" stroke-width="0.5"/>
<path d="M 715.2 191.36 A 2.451 2.451 0 1 0 717.65 188.91"
fill="none" stroke="black" stroke-width="0.5"/>
<path d="M699.18 191.36L715.2 191.36"
fill="none" stroke="black" stroke-width="0.5"/>
<path d="M 696.73 188.91 A 2.451 2.451 0 1 0 699.18 191.36"
fill="none" stroke="black" stroke-width="0.5"/>
<path d="M696.73 143.48L696.73 188.91Z"
fill="none" stroke="black" stroke-width="0.5"/>
<path d="M 86.93 135.57 A 2.451 2.451 0 1 0 84.48 133.12"
fill="none" stroke="black" stroke-width="0.5"/>
<path d="M86.93 180.99L86.93 135.57Z"
fill="none" stroke="black" stroke-width="0.5"/>
<path d="M 84.48 183.45 A 2.451 2.451 0 1 0 86.93 180.99"
fill="none" stroke="black" stroke-width="0.5"/>
<path d="M68.46 183.45L84.48 183.45"
fill="none" stroke="black" stroke-width="0.5"/>
<path d="M 66.01 180.99 A 2.451 2.451 0 1 0 68.46 183.45"
fill="none" stroke="black" stroke-width="0.5"/>
<path d="M66.01 135.57L66.01 180.99Z"
fill="none" stroke="black" stroke-width="0.5"/>
<path d="M 68.46 133.12 A 2.451 2.451 0 1 0 66.01 135.57"
fill="none" stroke="black" stroke-width="0.5"/>
<path d="M84.48 133.12L68.46 133.12"
fill="none" stroke="black" stroke-width="0.5"/>
<path d="M 717.65 401.65 A 2.451 2.451 0 1 0 715.2 399.2"
fill="none" stroke="black" stroke-width="0.5"/>
<path d="M717.65 447.08L717.65 401.65Z"
fill="none" stroke="black" stroke-width="0.5"/>
<path d="M 715.2 449.53 A 2.451 2.451 0 1 0 717.65 447.08"
fill="none" stroke="black" stroke-width="0.5"/>
<path d="M699.18 449.53L715.2 449.53"
fill="none" stroke="black" stroke-width="0.5"/>
<path d="M 696.73 447.08 A 2.451 2.451 0 1 0 699.18 449.53"
fill="none" stroke="black" stroke-width="0.5"/>
<path d="M696.73 401.65L696.73 447.08Z"
fill="none" stroke="black" stroke-width="0.5"/>
<path d="M 699.18 399.2 A 2.451 2.451 0 1 0 696.73 401.65"
fill="none" stroke="black" stroke-width="0.5"/>
<path d="M715.2 399.2L699.18 399.2"
fill="none" stroke="black" stroke-width="0.5"/>
<path d="M664.73 365.36L664.53 368.01"
fill="none" stroke="black" stroke-width="0.5"/>
<path d="M664.53 368.01L663.94 370.61"
fill="none" stroke="black" stroke-width="0.5"/>
<path d="M663.94 370.61L662.97 373.09"
fill="none" stroke="black" stroke-width="0.5"/>
<path d="M662.97 373.09L661.64 375.39"
fill="none" stroke="black" stroke-width="0.5"/>
<path d="M661.64 375.39L659.98 377.47"
fill="none" stroke="black" stroke-width="0.5"/>
<path d="M659.98 377.47L658.03 379.28"
fill="none" stroke="black" stroke-width="0.5"/>
<path d="M658.03 379.28L655.83 380.78"
fill="none" stroke="black" stroke-width="0.5"/>
<path d="M655.83 380.78L653.43 381.94"
fill="none" stroke="black" stroke-width="0.5"/>
<path d="M653.43 381.94L650.88 382.72"
fill="none" stroke="black" stroke-width="0.5"/>
<path d="M650.88 382.72L648.25 383.12"
fill="none" stroke="black" stroke-width="0.5"/>
<path d="M648.25 383.12L645.59 383.12"
fill="none" stroke="black" stroke-width="0.5"/>
<path d="M645.59 383.12L642.96 382.72"
fill="none" stroke="black" stroke-width="0.5"/>
<path d="M642.96 382.72L640.41 381.94"
fill="none" stroke="black" stroke-width="0.5"/>
<path d="M640.41 381.94L638.02 380.78"
fill="none" stroke="black" stroke-width="0.5"/>
<path d="M638.02 380.78L635.82 379.28"
fill="none" stroke="black" stroke-width="0.5"/>
<path d="M635.82 379.28L633.86 377.47"
fill="none" stroke="black" stroke-width="0.5"/>
<path d="M633.86 377.47L632.2 375.39"
fill="none" stroke="black" stroke-width="0.5"/>
<path d="M632.2 375.39L630.87 373.09"
fill="none" stroke="black" stroke-width="0.5"/>
<path d="M630.87 373.09L629.9 370.61"
fill="none" stroke="black" stroke-width="0.5"/>
<path d="M629.9 370.61L629.31 368.01"
fill="none" stroke="black" stroke-width="0.5"/>
<path d="M629.31 368.01L629.11 365.36"
fill="none" stroke="black" stroke-width="0.5"/>
<path d="M629.11 365.36L629.31 362.7"
fill="none" stroke="black" stroke-width="0.5"/>
<path d="M629.31 362.7L629.9 360.11"
fill="none" stroke="black" stroke-width="0.5"/>
<path d="M629.9 360.11L630.87 357.63"
fill="none" stroke="black" stroke-width="0.5"/>
<path d="M630.87 357.63L632.2 355.33"
fill="none" stroke="black" stroke-width="0.5"/>
<path d="M632.2 355.33L633.86 353.25"
fill="none" stroke="black" stroke-width="0.5"/>
<path d="M633.86 353.25L635.82 351.43"
fill="none" stroke="black" stroke-width="0.5"/>
<path d="M635.82 351.43L638.02 349.94"
fill="none" stroke="black" stroke-width="0.5"/>
<path d="M638.02 349.94L640.41 348.78"
fill="none" stroke="black" stroke-width="0.5"/>
<path d="M640.41 348.78L642.96 348"
fill="none" stroke="black" stroke-width="0.5"/>
<path d="M642.96 348L645.59 347.6"
fill="none" stroke="black" stroke-width="0.5"/>
<path d="M645.59 347.6L648.25 347.6"
fill="none" stroke="black" stroke-width="0.5"/>
<path d="M648.25 347.6L650.88 348"
fill="none" stroke="black" stroke-width="0.5"/>
<path d="M650.88 348L653.43 348.78"
fill="none" stroke="black" stroke-width="0.5"/>
<path d="M653.43 348.78L655.83 349.94"
fill="none" stroke="black" stroke-width="0.5"/>
<path d="M655.83 349.94L658.03 351.43"
fill="none" stroke="black" stroke-width="0.5"/>
<path d="M658.03 351.43L659.98 353.25"
fill="none" stroke="black" stroke-width="0.5"/>
<path d="M659.98 353.25L661.64 355.33"
fill="none" stroke="black" stroke-width="0.5"/>
<path d="M661.64 355.33L662.97 357.63"
fill="none" stroke="black" stroke-width="0.5"/>
<path d="M662.97 357.63L663.94 360.11"
fill="none" stroke="black" stroke-width="0.5"/>
<path d="M663.94 360.11L664.53 362.7"
fill="none" stroke="black" stroke-width="0.5"/>
<path d="M664.53 362.7L664.73 365.36"
fill="none" stroke="black" stroke-width="0.5"/>
<path d="M664.73 234.64L664.53 237.3"
fill="none" stroke="black" stroke-width="0.5"/>
<path d="M664.53 237.3L663.94 239.89"
fill="none" stroke="black" stroke-width="0.5"/>
<path d="M663.94 239.89L662.97 242.37"
fill="none" stroke="black" stroke-width="0.5"/>
<path d="M662.97 242.37L661.64 244.67"
fill="none" stroke="black" stroke-width="0.5"/>
<path d="M661.64 244.67L659.98 246.75"
fill="none" stroke="black" stroke-width="0.5"/>
<path d="M659.98 246.75L658.03 248.57"
fill="none" stroke="black" stroke-width="0.5"/>
<path d="M658.03 248.57L655.83 250.06"
fill="none" stroke="black" stroke-width="0.5"/>
<path d="M655.83 250.06L653.43 251.22"
fill="none" stroke="black" stroke-width="0.5"/>
<path d="M653.43 251.22L650.88 252"
fill="none" stroke="black" stroke-width="0.5"/>
<path d="M650.88 252L648.25 252.4"
fill="none" stroke="black" stroke-width="0.5"/>
<path d="M648.25 252.4L645.59 252.4"
fill="none" stroke="black" stroke-width="0.5"/>
<path d="M645.59 252.4L642.96 252"
fill="none" stroke="black" stroke-width="0.5"/>
<path d="M642.96 252L640.41 251.22"
fill="none" stroke="black" stroke-width="0.5"/>
<path d="M640.41 251.22L638.02 250.06"
fill="none" stroke="black" stroke-width="0.5"/>
<path d="M638.02 250.06L635.82 248.57"
fill="none" stroke="black" stroke-width="0.5"/>
<path d="M635.82 248.57L633.86 246.75"
fill="none" stroke="black" stroke-width="0.5"/>
<path d="M633.86 246.75L632.2 244.67"
fill="none" stroke="black" stroke-width="0.5"/>
<path d="M632.2 244.67L630.87 242.37"
fill="none" stroke="black" stroke-width="0.5"/>
<path d="M630.87 242.37L629.9 239.89"
fill="none" stroke="black" stroke-width="0.5"/>
<path d="M629.9 239.89L629.31 237.3"
fill="none" stroke="black" stroke-width="0.5"/>
<path d="M629.31 237.3L629.11 234.64"
fill="none" stroke="black" stroke-width="0.5"/>
<path d="M629.11 234.64L629.31 231.99"
fill="none" stroke="black" stroke-width="0.5"/>
<path d="M629.31 231.99L629.9 229.39"
fill="none" stroke="black" stroke-width="0.5"/>
<path d="M629.9 229.39L630.87 226.91"
fill="none" stroke="black" stroke-width="0.5"/>
<path d="M630.87 226.91L632.2 224.61"
fill="none" stroke="black" stroke-width="0.5"/>
<path d="M632.2 224.61L633.86 222.53"
fill="none" stroke="black" stroke-width="0.5"/>
<path d="M633.86 222.53L635.82 220.72"
fill="none" stroke="black" stroke-width="0.5"/>
<path d="M635.82 220.72L638.02 219.22"
fill="none" stroke="black" stroke-width="0.5"/>
<path d="M638.02 219.22L640.41 218.06"
fill="none" stroke="black" stroke-width="0.5"/>
<path d="M640.41 218.06L642.96 217.28"
fill="none" stroke="black" stroke-width="0.5"/>
<path d="M642.96 217.28L645.59 216.88"
fill="none" stroke="black" stroke-width="0.5"/>
<path d="M645.59 216.88L648.25 216.88"
fill="none" stroke="black" stroke-width="0.5"/>
<path d="M648.25 216.88L650.88 217.28"
fill="none" stroke="black" stroke-width="0.5"/>
<path d="M650.88 217.28L653.43 218.06"
fill="none" stroke="black" stroke-width="0.5"/>
<path d="M653.43 218.06L655.83 219.22"
fill="none" stroke="black" stroke-width="0.5"/>
<path d="M655.83 219.22L658.03 220.72"
fill="none" stroke="black" stroke-width="0.5"/>
<path d="M658.03 220.72L659.98 222.53"
fill="none" stroke="black" stroke-width="0.5"/>
<path d="M659.98 222.53L661.64 224.61"
fill="none" stroke="black" stroke-width="0.5"/>
<path d="M661.64 224.61L662.97 226.91"
fill="none" stroke="black" stroke-width="0.5"/>
<path d="M662.97 226.91L663.94 229.39"
fill="none" stroke="black" stroke-width="0.5"/>
<path d="M663.94 229.39L664.53 231.99"
fill="none" stroke="black" stroke-width="0.5"/>
<path d="M664.53 231.99L664.73 234.64"
fill="none" stroke="black" stroke-width="0.5"/>
<path d="M601.27 120.26L601.09 121.93"
fill="none" stroke="black" stroke-width="0.5"/>
<path d="M601.09 121.93L600.53 123.52"
fill="none" stroke="black" stroke-width="0.5"/>
<path d="M600.53 123.52L599.63 124.95"
fill="none" stroke="black" stroke-width="0.5"/>
<path d="M599.63 124.95L598.44 126.14"
fill="none" stroke="black" stroke-width="0.5"/>
<path d="M598.44 126.14L597.02 127.03"
fill="none" stroke="black" stroke-width="0.5"/>
<path d="M597.02 127.03L595.43 127.59"
fill="none" stroke="black" stroke-width="0.5"/>
<path d="M595.43 127.59L593.76 127.78"
fill="none" stroke="black" stroke-width="0.5"/>
<path d="M593.76 127.78L592.09 127.59"
fill="none" stroke="black" stroke-width="0.5"/>
<path d="M592.09 127.59L590.5 127.03"
fill="none" stroke="black" stroke-width="0.5"/>
<path d="M590.5 127.03L589.07 126.14"
fill="none" stroke="black" stroke-width="0.5"/>
<path d="M589.07 126.14L587.88 124.95"
fill="none" stroke="black" stroke-width="0.5"/>
<path d="M587.88 124.95L586.99 123.52"
fill="none" stroke="black" stroke-width="0.5"/>
<path d="M586.99 123.52L586.43 121.93"
fill="none" stroke="black" stroke-width="0.5"/>
<path d="M586.43 121.93L586.24 120.26"
fill="none" stroke="black" stroke-width="0.5"/>
<path d="M586.24 120.26L586.43 118.59"
fill="none" stroke="black" stroke-width="0.5"/>
<path d="M586.43 118.59L586.99 117"
fill="none" stroke="black" stroke-width="0.5"/>
<path d="M586.99 117L587.88 115.58"
fill="none" stroke="black" stroke-width="0.5"/>
<path d="M587.88 115.58L589.07 114.38"
fill="none" stroke="black" stroke-width="0.5"/>
<path d="M589.07 114.38L590.5 113.49"
fill="none" stroke="black" stroke-width="0.5"/>
<path d="M590.5 113.49L592.09 112.93"
fill="none" stroke="black" stroke-width="0.5"/>
<path d="M592.09 112.93L593.76 112.75"
fill="none" stroke="black" stroke-width="0.5"/>
<path d="M593.76 112.75L595.43 112.93"
fill="none" stroke="black" stroke-width="0.5"/>
<path d="M595.43 112.93L597.02 113.49"
fill="none" stroke="black" stroke-width="0.5"/>
<path d="M597.02 113.49L598.44 114.38"
fill="none" stroke="black" stroke-width="0.5"/>
<path d="M598.44 114.38L599.63 115.58"
fill="none" stroke="black" stroke-width="0.5"/>
<path d="M599.63 115.58L600.53 117"
fill="none" stroke="black" stroke-width="0.5"/>
<path d="M600.53 117L601.09 118.59"
fill="none" stroke="black" stroke-width="0.5"/>
<path d="M601.09 118.59L601.27 120.26"
fill="none" stroke="black" stroke-width="0.5"/>
<path d="M601.27 479.74L601.09 481.41"
fill="none" stroke="black" stroke-width="0.5"/>
<path d="M601.09 481.41L600.53 483"
fill="none" stroke="black" stroke-width="0.5"/>
<path d="M600.53 483L599.63 484.42"
fill="none" stroke="black" stroke-width="0.5"/>
<path d="M599.63 484.42L598.44 485.62"
fill="none" stroke="black" stroke-width="0.5"/>
<path d="M598.44 485.62L597.02 486.51"
fill="none" stroke="black" stroke-width="0.5"/>
<path d="M597.02 486.51L595.43 487.07"
fill="none" stroke="black" stroke-width="0.5"/>
<path d="M595.43 487.07L593.76 487.25"
fill="none" stroke="black" stroke-width="0.5"/>
<path d="M593.76 487.25L592.09 487.07"
fill="none" stroke="black" stroke-width="0.5"/>
<path d="M592.09 487.07L590.5 486.51"
fill="none" stroke="black" stroke-width="0.5"/>
<path d="M590.5 486.51L589.07 485.62"
fill="none" stroke="black" stroke-width="0.5"/>
<path d="M589.07 485.62L587.88 484.42"
fill="none" stroke="black" stroke-width="0.5"/>
<path d="M587.88 484.42L586.99 483"
fill="none" stroke="black" stroke-width="0.5"/>
<path d="M586.99 483L586.43 481.41"
fill="none" stroke="black" stroke-width="0.5"/>
<path d="M586.43 481.41L586.24 479.74"
fill="none" stroke="black" stroke-width="0.5"/>
<path d="M586.24 479.74L586.43 478.07"
fill="none" stroke="black" stroke-width="0.5"/>
<path d="M586.43 478.07L586.99 476.48"
fill="none" stroke="black" stroke-width="0.5"/>
<path d="M586.99 476.48L587.88 475.05"
fill="none" stroke="black" stroke-width="0.5"/>
<path d="M587.88 475.05L589.07 473.86"
fill="none" stroke="black" stroke-width="0.5"/>
<path d="M589.07 473.86L590.5 472.97"
fill="none" stroke="black" stroke-width="0.5"/>
<path d="M590.5 472.97L592.09 472.41"
fill="none" stroke="black" stroke-width="0.5"/>
<path d="M592.09 472.41L593.76 472.22"
fill="none" stroke="black" stroke-width="0.5"/>
<path d="M593.76 472.22L595.43 472.41"
fill="none" stroke="black" stroke-width="0.5"/>
<path d="M595.43 472.41L597.02 472.97"
fill="none" stroke="black" stroke-width="0.5"/>
<path d="M597.02 472.97L598.44 473.86"
fill="none" stroke="black" stroke-width="0.5"/>
<path d="M598.44 473.86L599.63 475.05"
fill="none" stroke="black" stroke-width="0.5"/>
<path d="M599.63 475.05L600.53 476.48"
fill="none" stroke="black" stroke-width="0.5"/>
<path d="M600.53 476.48L601.09 478.07"
fill="none" stroke="black" stroke-width="0.5"/>
<path d="M601.09 478.07L601.27 479.74"
fill="none" stroke="black" stroke-width="0.5"/>
<path d="M498.86 365.36L498.66 367.92"
fill="none" stroke="black" stroke-width="0.5"/>
<path d="M498.66 367.92L498.09 370.42"
fill="none" stroke="black" stroke-width="0.5"/>
<path d="M498.09 370.42L497.16 372.8"
fill="none" stroke="black" stroke-width="0.5"/>
<path d="M497.16 372.8L495.88 375.02"
fill="none" stroke="black" stroke-width="0.5"/>
<path d="M495.88 375.02L494.28 377.03"
fill="none" stroke="black" stroke-width="0.5"/>
<path d="M494.28 377.03L492.4 378.77"
fill="none" stroke="black" stroke-width="0.5"/>
<path d="M492.4 378.77L490.28 380.22"
fill="none" stroke="black" stroke-width="0.5"/>
<path d="M490.28 380.22L487.97 381.33"
fill="none" stroke="black" stroke-width="0.5"/>
<path d="M487.97 381.33L485.52 382.09"
fill="none" stroke="black" stroke-width="0.5"/>
<path d="M485.52 382.09L482.98 382.47"
fill="none" stroke="black" stroke-width="0.5"/>
<path d="M482.98 382.47L480.42 382.47"
fill="none" stroke="black" stroke-width="0.5"/>
<path d="M480.42 382.47L477.88 382.09"
fill="none" stroke="black" stroke-width="0.5"/>
<path d="M477.88 382.09L475.43 381.33"
fill="none" stroke="black" stroke-width="0.5"/>
<path d="M475.43 381.33L473.12 380.22"
fill="none" stroke="black" stroke-width="0.5"/>
<path d="M473.12 380.22L471 378.77"
fill="none" stroke="black" stroke-width="0.5"/>
<path d="M471 378.77L469.12 377.03"
fill="none" stroke="black" stroke-width="0.5"/>
<path d="M469.12 377.03L467.52 375.02"
fill="none" stroke="black" stroke-width="0.5"/>
<path d="M467.52 375.02L466.24 372.8"
fill="none" stroke="black" stroke-width="0.5"/>
<path d="M466.24 372.8L465.3 370.42"
fill="none" stroke="black" stroke-width="0.5"/>
<path d="M465.3 370.42L464.73 367.92"
fill="none" stroke="black" stroke-width="0.5"/>
<path d="M464.73 367.92L464.54 365.36"
fill="none" stroke="black" stroke-width="0.5"/>
<path d="M464.54 365.36L464.73 362.8"
fill="none" stroke="black" stroke-width="0.5"/>
<path d="M464.73 362.8L465.3 360.3"
fill="none" stroke="black" stroke-width="0.5"/>
<path d="M465.3 360.3L466.24 357.92"
fill="none" stroke="black" stroke-width="0.5"/>
<path d="M466.24 357.92L467.52 355.69"
fill="none" stroke="black" stroke-width="0.5"/>
<path d="M467.52 355.69L469.12 353.69"
fill="none" stroke="black" stroke-width="0.5"/>
<path d="M469.12 353.69L471 351.95"
fill="none" stroke="black" stroke-width="0.5"/>
<path d="M471 351.95L473.12 350.5"
fill="none" stroke="black" stroke-width="0.5"/>
<path d="M473.12 350.5L475.43 349.39"
fill="none" stroke="black" stroke-width="0.5"/>
<path d="M475.43 349.39L477.88 348.63"
fill="none" stroke="black" stroke-width="0.5"/>
<path d="M477.88 348.63L480.42 348.25"
fill="none" stroke="black" stroke-width="0.5"/>
<path d="M480.42 348.25L482.98 348.25"
fill="none" stroke="black" stroke-width="0.5"/>
<path d="M482.98 348.25L485.52 348.63"
fill="none" stroke="black" stroke-width="0.5"/>
<path d="M485.52 348.63L487.97 349.39"
fill="none" stroke="black" stroke-width="0.5"/>
<path d="M487.97 349.39L490.28 350.5"
fill="none" stroke="black" stroke-width="0.5"/>
<path d="M490.28 350.5L492.4 351.95"
fill="none" stroke="black" stroke-width="0.5"/>
<path d="M492.4 351.95L494.28 353.69"
fill="none" stroke="black" stroke-width="0.5"/>
<path d="M494.28 353.69L495.88 355.69"
fill="none" stroke="black" stroke-width="0.5"/>
<path d="M495.88 355.69L497.16 357.92"
fill="none" stroke="black" stroke-width="0.5"/>
<path d="M497.16 357.92L498.09 360.3"
fill="none" stroke="black" stroke-width="0.5"/>
<path d="M498.09 360.3L498.66 362.8"
fill="none" stroke="black" stroke-width="0.5"/>
<path d="M498.66 362.8L498.86 365.36"
fill="none" stroke="black" stroke-width="0.5"/>
<path d="M498.86 234.64L498.66 237.2"
fill="none" stroke="black" stroke-width="0.5"/>
<path d="M498.66 237.2L498.09 239.7"
fill="none" stroke="black" stroke-width="0.5"/>
<path d="M498.09 239.7L497.16 242.08"
fill="none" stroke="black" stroke-width="0.5"/>
<path d="M497.16 242.08L495.88 244.31"
fill="none" stroke="black" stroke-width="0.5"/>
<path d="M495.88 244.31L494.28 246.31"
fill="none" stroke="black" stroke-width="0.5"/>
<path d="M494.28 246.31L492.4 248.05"
fill="none" stroke="black" stroke-width="0.5"/>
<path d="M492.4 248.05L490.28 249.5"
fill="none" stroke="black" stroke-width="0.5"/>
<path d="M490.28 249.5L487.97 250.61"
fill="none" stroke="black" stroke-width="0.5"/>
<path d="M487.97 250.61L485.52 251.37"
fill="none" stroke="black" stroke-width="0.5"/>
<path d="M485.52 251.37L482.98 251.75"
fill="none" stroke="black" stroke-width="0.5"/>
<path d="M482.98 251.75L480.42 251.75"
fill="none" stroke="black" stroke-width="0.5"/>
<path d="M480.42 251.75L477.88 251.37"
fill="none" stroke="black" stroke-width="0.5"/>
<path d="M477.88 251.37L475.43 250.61"
fill="none" stroke="black" stroke-width="0.5"/>
<path d="M475.43 250.61L473.12 249.5"
fill="none" stroke="black" stroke-width="0.5"/>
<path d="M473.12 249.5L471 248.05"
fill="none" stroke="black" stroke-width="0.5"/>
<path d="M471 248.05L469.12 246.31"
fill="none" stroke="black" stroke-width="0.5"/>
<path d="M469.12 246.31L467.52 244.31"
fill="none" stroke="black" stroke-width="0.5"/>
<path d="M467.52 244.31L466.24 242.08"
fill="none" stroke="black" stroke-width="0.5"/>
<path d="M466.24 242.08L465.3 239.7"
fill="none" stroke="black" stroke-width="0.5"/>
<path d="M465.3 239.7L464.73 237.2"
fill="none" stroke="black" stroke-width="0.5"/>
<path d="M464.73 237.2L464.54 234.64"
fill="none" stroke="black" stroke-width="0.5"/>
<path d="M464.54 234.64L464.73 232.08"
fill="none" stroke="black" stroke-width="0.5"/>
<path d="M464.73 232.08L465.3 229.58"
fill="none" stroke="black" stroke-width="0.5"/>
<path d="M465.3 229.58L466.24 227.2"
fill="none" stroke="black" stroke-width="0.5"/>
<path d="M466.24 227.2L467.52 224.98"
fill="none" stroke="black" stroke-width="0.5"/>
<path d="M467.52 224.98L469.12 222.97"
fill="none" stroke="black" stroke-width="0.5"/>
<path d="M469.12 222.97L471 221.23"
fill="none" stroke="black" stroke-width="0.5"/>
<path d="M471 221.23L473.12 219.78"
fill="none" stroke="black" stroke-width="0.5"/>
<path d="M473.12 219.78L475.43 218.67"
fill="none" stroke="black" stroke-width="0.5"/>
<path d="M475.43 218.67L477.88 217.91"
fill="none" stroke="black" stroke-width="0.5"/>
<path d="M477.88 217.91L480.42 217.53"
fill="none" stroke="black" stroke-width="0.5"/>
<path d="M480.42 217.53L482.98 217.53"
fill="none" stroke="black" stroke-width="0.5"/>
<path d="M482.98 217.53L485.52 217.91"
fill="none" stroke="black" stroke-width="0.5"/>
<path d="M485.52 217.91L487.97 218.67"
fill="none" stroke="black" stroke-width="0.5"/>
<path d="M487.97 218.67L490.28 219.78"
fill="none" stroke="black" stroke-width="0.5"/>
<path d="M490.28 219.78L492.4 221.23"
fill="none" stroke="black" stroke-width="0.5"/>
<path d="M492.4 221.23L494.28 222.97"
fill="none" stroke="black" stroke-width="0.5"/>
<path d="M494.28 222.97L495.88 224.98"
fill="none" stroke="black" stroke-width="0.5"/>
<path d="M495.88 224.98L497.16 227.2"
fill="none" stroke="black" stroke-width="0.5"/>
<path d="M497.16 227.2L498.09 229.58"
fill="none" stroke="black" stroke-width="0.5"/>
<path d="M498.09 229.58L498.66 232.08"
fill="none" stroke="black" stroke-width="0.5"/>
<path d="M498.66 232.08L498.86 234.64"
fill="none" stroke="black" stroke-width="0.5"/>
<path d="M465.36 5.88L89.54 5.88"
fill="none" stroke="black" stroke-width="0.5"/>
<path d="M89.54 5.88L56.86 38.56"
fill="none" stroke="black" stroke-width="0.5"/>
<path d="M56.86 38.56L56.86 561.44Z"
fill="none" stroke="black" stroke-width="0.5"/>
<path d="M56.86 561.44L89.54 594.12"
fill="none" stroke="black" stroke-width="0.5"/>
<path d="M89.54 594.12L465.36 594.12"
fill="none" stroke="black" stroke-width="0.5"/>
<path d="M 465.36 594.12 A 16.34 16.34 0 0 0 481.7 577.78"
fill="none" stroke="black" stroke-width="0.5"/>
<path d="M481.7 577.78L481.7 561.44Z"
fill="none" stroke="black" stroke-width="0.5"/>
<path d="M 498.04 545.1 A 16.34 16.34 0 0 0 481.7 561.44"
fill="none" stroke="black" stroke-width="0.5"/>
<path d="M498.04 545.1L544.41 545.1"
fill="none" stroke="black" stroke-width="0.5"/>
<path d="M 544.41 545.1 A 16.34 16.34 0 0 0 549.57 544.26"
fill="none" stroke="black" stroke-width="0.5"/>
<path d="M549.57 544.26L731.96 483.46"
fill="none" stroke="black" stroke-width="0.5"/>
<path d="M 731.96 483.46 A 16.34 16.34 0 0 0 743.14 467.96"
fill="none" stroke="black" stroke-width="0.5"/>
<path d="M743.14 467.96L743.14 132.04Z"
fill="none" stroke="black" stroke-width="0.5"/>
<path d="M 743.14 132.04 A 16.34 16.34 0 0 0 731.96 116.54"
fill="none" stroke="black" stroke-width="0.5"/>
<path d="M731.96 116.54L549.57 55.74"
fill="none" stroke="black" stroke-width="0.5"/>
<path d="M 549.57 55.74 A 16.34 16.34 0 0 0 544.41 54.9"
fill="none" stroke="black" stroke-width="0.5"/>
<path d="M544.41 54.9L498.04 54.9"
fill="none" stroke="black" stroke-width="0.5"/>
<path d="M 481.7 38.56 A 16.34 16.34 0 0 0 498.04 54.9"
fill="none" stroke="black" stroke-width="0.5"/>
<path d="M481.7 38.56L481.7 22.22Z"
fill="none" stroke="black" stroke-width="0.5"/>
<path d="M 481.7 22.22 A 16.34 16.34 0 0 0 465.36 5.88"
fill="none" stroke="black" stroke-width="0.5"/>
<path d="M115.72 479.74L115.53 481.41"
fill="none" stroke="black" stroke-width="0.5"/>
<path d="M115.53 481.41L114.97 483"
fill="none" stroke="black" stroke-width="0.5"/>
<path d="M114.97 483L114.08 484.42"
fill="none" stroke="black" stroke-width="0.5"/>
<path d="M114.08 484.42L112.89 485.62"
fill="none" stroke="black" stroke-width="0.5"/>
<path d="M112.89 485.62L111.46 486.51"
fill="none" stroke="black" stroke-width="0.5"/>
<path d="M111.46 486.51L109.88 487.07"
fill="none" stroke="black" stroke-width="0.5"/>
<path d="M109.88 487.07L108.2 487.25"
fill="none" stroke="black" stroke-width="0.5"/>
<path d="M108.2 487.25L106.53 487.07"
fill="none" stroke="black" stroke-width="0.5"/>
<path d="M106.53 487.07L104.94 486.51"
fill="none" stroke="black" stroke-width="0.5"/>
<path d="M104.94 486.51L103.52 485.62"
fill="none" stroke="black" stroke-width="0.5"/>
<path d="M103.52 485.62L102.33 484.42"
fill="none" stroke="black" stroke-width="0.5"/>
<path d="M102.33 484.42L101.43 483"
fill="none" stroke="black" stroke-width="0.5"/>
<path d="M101.43 483L100.87 481.41"
fill="none" stroke="black" stroke-width="0.5"/>
<path d="M100.87 481.41L100.69 479.74"
fill="none" stroke="black" stroke-width="0.5"/>
<path d="M100.69 479.74L100.87 478.07"
fill="none" stroke="black" stroke-width="0.5"/>
<path d="M100.87 478.07L101.43 476.48"
fill="none" stroke="black" stroke-width="0.5"/>
<path d="M101.43 476.48L102.33 475.05"
fill="none" stroke="black" stroke-width="0.5"/>
<path d="M102.33 475.05L103.52 473.86"
fill="none" stroke="black" stroke-width="0.5"/>
<path d="M103.52 473.86L104.94 472.97"
fill="none" stroke="black" stroke-width="0.5"/>
<path d="M104.94 472.97L106.53 472.41"
fill="none" stroke="black" stroke-width="0.5"/>
<path d="M106.53 472.41L108.2 472.22"
fill="none" stroke="black" stroke-width="0.5"/>
<path d="M108.2 472.22L109.88 472.41"
fill="none" stroke="black" stroke-width="0.5"/>
<path d="M109.88 472.41L111.46 472.97"
fill="none" stroke="black" stroke-width="0.5"/>
<path d="M111.46 472.97L112.89 473.86"
fill="none" stroke="black" stroke-width="0.5"/>
<path d="M112.89 473.86L114.08 475.05"
fill="none" stroke="black" stroke-width="0.5"/>
<path d="M114.08 475.05L114.97 476.48"
fill="none" stroke="black" stroke-width="0.5"/>
<path d="M114.97 476.48L115.53 478.07"
fill="none" stroke="black" stroke-width="0.5"/>
<path d="M115.53 478.07L115.72 479.74"
fill="none" stroke="black" stroke-width="0.5"/>
<path d="M437.88 120.26L437.69 121.93"
fill="none" stroke="black" stroke-width="0.5"/>
<path d="M437.69 121.93L437.13 123.52"
fill="none" stroke="black" stroke-width="0.5"/>
<path d="M437.13 123.52L436.24 124.95"
fill="none" stroke="black" stroke-width="0.5"/>
<path d="M436.24 124.95L435.05 126.14"
fill="none" stroke="black" stroke-width="0.5"/>
<path d="M435.05 126.14L433.62 127.03"
fill="none" stroke="black" stroke-width="0.5"/>
<path d="M433.62 127.03L432.03 127.59"
fill="none" stroke="black" stroke-width="0.5"/>
<path d="M432.03 127.59L430.36 127.78"
fill="none" stroke="black" stroke-width="0.5"/>
<path d="M430.36 127.78L428.69 127.59"
fill="none" stroke="black" stroke-width="0.5"/>
<path d="M428.69 127.59L427.1 127.03"
fill="none" stroke="black" stroke-width="0.5"/>
<path d="M427.1 127.03L425.67 126.14"
fill="none" stroke="black" stroke-width="0.5"/>
<path d="M425.67 126.14L424.48 124.95"
fill="none" stroke="black" stroke-width="0.5"/>
<path d="M424.48 124.95L423.59 123.52"
fill="none" stroke="black" stroke-width="0.5"/>
<path d="M423.59 123.52L423.03 121.93"
fill="none" stroke="black" stroke-width="0.5"/>
<path d="M423.03 121.93L422.84 120.26"
fill="none" stroke="black" stroke-width="0.5"/>
<path d="M422.84 120.26L423.03 118.59"
fill="none" stroke="black" stroke-width="0.5"/>
<path d="M423.03 118.59L423.59 117"
fill="none" stroke="black" stroke-width="0.5"/>
<path d="M423.59 117L424.48 115.58"
fill="none" stroke="black" stroke-width="0.5"/>
<path d="M424.48 115.58L425.67 114.38"
fill="none" stroke="black" stroke-width="0.5"/>
<path d="M425.67 114.38L427.1 113.49"
fill="none" stroke="black" stroke-width="0.5"/>
<path d="M427.1 113.49L428.69 112.93"
fill="none" stroke="black" stroke-width="0.5"/>
<path d="M428.69 112.93L430.36 112.75"
fill="none" stroke="black" stroke-width="0.5"/>
<path d="M430.36 112.75L432.03 112.93"
fill="none" stroke="black" stroke-width="0.5"/>
<path d="M432.03 112.93L433.62 113.49"
fill="none" stroke="black" stroke-width="0.5"/>
<path d="M433.62 113.49L435.05 114.38"
fill="none" stroke="black" stroke-width="0.5"/>
<path d="M435.05 114.38L436.24 115.58"
fill="none" stroke="black" stroke-width="0.5"/>
<path d="M436.24 115.58L437.13 117"
fill="none" stroke="black" stroke-width="0.5"/>
<path d="M437.13 117L437.69 118.59"
fill="none" stroke="black" stroke-width="0.5"/>
<path d="M437.69 118.59L437.88 120.26"
fill="none" stroke="black" stroke-width="0.5"/>
<path d="M115.72 120.26L115.53 121.93"
fill="none" stroke="black" stroke-width="0.5"/>
<path d="M115.53 121.93L114.97 123.52"
fill="none" stroke="black" stroke-width="0.5"/>
<path d="M114.97 123.52L114.08 124.95"
fill="none" stroke="black" stroke-width="0.5"/>
<path d="M114.08 124.95L112.89 126.14"
fill="none" stroke="black" stroke-width="0.5"/>
<path d="M112.89 126.14L111.46 127.03"
fill="none" stroke="black" stroke-width="0.5"/>
<path d="M111.46 127.03L109.88 127.59"
fill="none" stroke="black" stroke-width="0.5"/>
<path d="M109.88 127.59L108.2 127.78"
fill="none" stroke="black" stroke-width="0.5"/>
<path d="M108.2 127.78L106.53 127.59"
fill="none" stroke="black" stroke-width="0.5"/>
<path d="M106.53 127.59L104.94 127.03"
fill="none" stroke="black" stroke-width="0.5"/>
<path d="M104.94 127.03L103.52 126.14"
fill="none" stroke="black" stroke-width="0.5"/>
<path d="M103.52 126.14L102.33 124.95"
fill="none" stroke="black" stroke-width="0.5"/>
<path d="M102.33 124.95L101.43 123.52"
fill="none" stroke="black" stroke-width="0.5"/>
<path d="M101.43 123.52L100.87 121.93"
fill="none" stroke="black" stroke-width="0.5"/>
<path d="M100.87 121.93L100.69 120.26"
fill="none" stroke="black" stroke-width="0.5"/>
<path d="M100.69 120.26L100.87 118.59"
fill="none" stroke="black" stroke-width="0.5"/>
<path d="M100.87 118.59L101.43 117"
fill="none" stroke="black" stroke-width="0.5"/>
<path d="M101.43 117L102.33 115.58"
fill="none" stroke="black" stroke-width="0.5"/>
<path d="M102.33 115.58L103.52 114.38"
fill="none" stroke="black" stroke-width="0.5"/>
<path d="M103.52 114.38L104.94 113.49"
fill="none" stroke="black" stroke-width="0.5"/>
<path d="M104.94 113.49L106.53 112.93"
fill="none" stroke="black" stroke-width="0.5"/>
<path d="M106.53 112.93L108.2 112.75"
fill="none" stroke="black" stroke-width="0.5"/>
<path d="M108.2 112.75L109.88 112.93"
fill="none" stroke="black" stroke-width="0.5"/>
<path d="M109.88 112.93L111.46 113.49"
fill="none" stroke="black" stroke-width="0.5"/>
<path d="M111.46 113.49L112.89 114.38"
fill="none" stroke="black" stroke-width="0.5"/>
<path d="M112.89 114.38L114.08 115.58"
fill="none" stroke="black" stroke-width="0.5"/>
<path d="M114.08 115.58L114.97 117"
fill="none" stroke="black" stroke-width="0.5"/>
<path d="M114.97 117L115.53 118.59"
fill="none" stroke="black" stroke-width="0.5"/>
<path d="M115.53 118.59L115.72 120.26"
fill="none" stroke="black" stroke-width="0.5"/>
<path d="M437.88 479.74L437.69 481.41"
fill="none" stroke="black" stroke-width="0.5"/>
<path d="M437.69 481.41L437.13 483"
fill="none" stroke="black" stroke-width="0.5"/>
<path d="M437.13 483L436.24 484.42"
fill="none" stroke="black" stroke-width="0.5"/>
<path d="M436.24 484.42L435.05 485.62"
fill="none" stroke="black" stroke-width="0.5"/>
<path d="M435.05 485.62L433.62 486.51"
fill="none" stroke="black" stroke-width="0.5"/>
<path d="M433.62 486.51L432.03 487.07"
fill="none" stroke="black" stroke-width="0.5"/>
<path d="M432.03 487.07L430.36 487.25"
fill="none" stroke="black" stroke-width="0.5"/>
<path d="M430.36 487.25L428.69 487.07"
fill="none" stroke="black" stroke-width="0.5"/>
<path d="M428.69 487.07L427.1 486.51"
fill="none" stroke="black" stroke-width="0.5"/>
<path d="M427.1 486.51L425.67 485.62"
fill="none" stroke="black" stroke-width="0.5"/>
<path d="M425.67 485.62L424.48 484.42"
fill="none" stroke="black" stroke-width="0.5"/>
<path d="M424.48 484.42L423.59 483"
fill="none" stroke="black" stroke-width="0.5"/>
<path d="M423.59 483L423.03 481.41"
fill="none" stroke="black" stroke-width="0.5"/>
<path d="M423.03 481.41L422.84 479.74"
fill="none" stroke="black" stroke-width="0.5"/>
<path d="M422.84 479.74L423.03 478.07"
fill="none" stroke="black" stroke-width="0.5"/>
<path d="M423.03 478.07L423.59 476.48"
fill="none" stroke="black" stroke-width="0.5"/>
<path d="M423.59 476.48L424.48 475.05"
fill="none" stroke="black" stroke-width="0.5"/>
<path d="M424.48 475.05L425.67 473.86"
fill="none" stroke="black" stroke-width="0.5"/>
<path d="M425.67 473.86L427.1 472.97"
fill="none" stroke="black" stroke-width="0.5"/>
<path d="M427.1 472.97L428.69 472.41"
fill="none" stroke="black" stroke-width="0.5"/>
<path d="M428.69 472.41L430.36 472.22"
fill="none" stroke="black" stroke-width="0.5"/>
<path d="M430.36 472.22L432.03 472.41"
fill="none" stroke="black" stroke-width="0.5"/>
<path d="M432.03 472.41L433.62 472.97"
fill="none" stroke="black" stroke-width="0.5"/>
<path d="M433.62 472.97L435.05 473.86"
fill="none" stroke="black" stroke-width="0.5"/>
<path d="M435.05 473.86L436.24 475.05"
fill="none" stroke="black" stroke-width="0.5"/>
<path d="M436.24 475.05L437.13 476.48"
fill="none" stroke="black" stroke-width="0.5"/>
<path d="M437.13 476.48L437.69 478.07"
fill="none" stroke="black" stroke-width="0.5"/>
<path d="M437.69 478.07L437.88 479.74"
fill="none" stroke="black" stroke-width="0.5"/>
<path d="M221.08 365.36L220.89 367.92"
fill="none" stroke="black" stroke-width="0.5"/>
<path d="M220.89 367.92L220.32 370.42"
fill="none" stroke="black" stroke-width="0.5"/>
<path d="M220.32 370.42L219.38 372.8"
fill="none" stroke="black" stroke-width="0.5"/>
<path d="M219.38 372.8L218.1 375.02"
fill="none" stroke="black" stroke-width="0.5"/>
<path d="M218.1 375.02L216.5 377.03"
fill="none" stroke="black" stroke-width="0.5"/>
<path d="M216.5 377.03L214.62 378.77"
fill="none" stroke="black" stroke-width="0.5"/>
<path d="M214.62 378.77L212.5 380.22"
fill="none" stroke="black" stroke-width="0.5"/>
<path d="M212.5 380.22L210.19 381.33"
fill="none" stroke="black" stroke-width="0.5"/>
<path d="M210.19 381.33L207.74 382.09"
fill="none" stroke="black" stroke-width="0.5"/>
<path d="M207.74 382.09L205.2 382.47"
fill="none" stroke="black" stroke-width="0.5"/>
<path d="M205.2 382.47L202.64 382.47"
fill="none" stroke="black" stroke-width="0.5"/>
<path d="M202.64 382.47L200.1 382.09"
fill="none" stroke="black" stroke-width="0.5"/>
<path d="M200.1 382.09L197.65 381.33"
fill="none" stroke="black" stroke-width="0.5"/>
<path d="M197.65 381.33L195.34 380.22"
fill="none" stroke="black" stroke-width="0.5"/>
<path d="M195.34 380.22L193.22 378.77"
fill="none" stroke="black" stroke-width="0.5"/>
<path d="M193.22 378.77L191.34 377.03"
fill="none" stroke="black" stroke-width="0.5"/>
<path d="M191.34 377.03L189.75 375.02"
fill="none" stroke="black" stroke-width="0.5"/>
<path d="M189.75 375.02L188.46 372.8"
fill="none" stroke="black" stroke-width="0.5"/>
<path d="M188.46 372.8L187.53 370.42"
fill="none" stroke="black" stroke-width="0.5"/>
<path d="M187.53 370.42L186.96 367.92"
fill="none" stroke="black" stroke-width="0.5"/>
<path d="M186.96 367.92L186.76 365.36"
fill="none" stroke="black" stroke-width="0.5"/>
<path d="M186.76 365.36L186.96 362.8"
fill="none" stroke="black" stroke-width="0.5"/>
<path d="M186.96 362.8L187.53 360.3"
fill="none" stroke="black" stroke-width="0.5"/>
<path d="M187.53 360.3L188.46 357.92"
fill="none" stroke="black" stroke-width="0.5"/>
<path d="M188.46 357.92L189.75 355.69"
fill="none" stroke="black" stroke-width="0.5"/>
<path d="M189.75 355.69L191.34 353.69"
fill="none" stroke="black" stroke-width="0.5"/>
<path d="M191.34 353.69L193.22 351.95"
fill="none" stroke="black" stroke-width="0.5"/>
<path d="M193.22 351.95L195.34 350.5"
fill="none" stroke="black" stroke-width="0.5"/>
<path d="M195.34 350.5L197.65 349.39"
fill="none" stroke="black" stroke-width="0.5"/>
<path d="M197.65 349.39L200.1 348.63"
fill="none" stroke="black" stroke-width="0.5"/>
<path d="M200.1 348.63L202.64 348.25"
fill="none" stroke="black" stroke-width="0.5"/>
<path d="M202.64 348.25L205.2 348.25"
fill="none" stroke="black" stroke-width="0.5"/>
<path d="M205.2 348.25L207.74 348.63"
fill="none" stroke="black" stroke-width="0.5"/>
<path d="M207.74 348.63L210.19 349.39"
fill="none" stroke="black" stroke-width="0.5"/>
<path d="M210.19 349.39L212.5 350.5"
fill="none" stroke="black" stroke-width="0.5"/>
<path d="M212.5 350.5L214.62 351.95"
fill="none" stroke="black" stroke-width="0.5"/>
<path d="M214.62 351.95L216.5 353.69"
fill="none" stroke="black" stroke-width="0.5"/>
<path d="M216.5 353.69L218.1 355.69"
fill="none" stroke="black" stroke-width="0.5"/>
<path d="M218.1 355.69L219.38 357.92"
fill="none" stroke="black" stroke-width="0.5"/>
<path d="M219.38 357.92L220.32 360.3"
fill="none" stroke="black" stroke-width="0.5"/>
<path d="M220.32 360.3L220.89 362.8"
fill="none" stroke="black" stroke-width="0.5"/>
<path d="M220.89 362.8L221.08 365.36"
fill="none" stroke="black" stroke-width="0.5"/>
<path d="M221.08 234.64L220.89 237.2"
fill="none" stroke="black" stroke-width="0.5"/>
<path d="M220.89 237.2L220.32 239.7"
fill="none" stroke="black" stroke-width="0.5"/>
<path d="M220.32 239.7L219.38 242.08"
fill="none" stroke="black" stroke-width="0.5"/>
<path d="M219.38 242.08L218.1 244.31"
fill="none" stroke="black" stroke-width="0.5"/>
<path d="M218.1 244.31L216.5 246.31"
fill="none" stroke="black" stroke-width="0.5"/>
<path d="M216.5 246.31L214.62 248.05"
fill="none" stroke="black" stroke-width="0.5"/>
<path d="M214.62 248.05L212.5 249.5"
fill="none" stroke="black" stroke-width="0.5"/>
<path d="M212.5 249.5L210.19 250.61"
fill="none" stroke="black" stroke-width="0.5"/>
<path d="M210.19 250.61L207.74 251.37"
fill="none" stroke="black" stroke-width="0.5"/>
<path d="M207.74 251.37L205.2 251.75"
fill="none" stroke="black" stroke-width="0.5"/>
<path d="M205.2 251.75L202.64 251.75"
fill="none" stroke="black" stroke-width="0.5"/>
<path d="M202.64 251.75L200.1 251.37"
fill="none" stroke="black" stroke-width="0.5"/>
<path d="M200.1 251.37L197.65 250.61"
fill="none" stroke="black" stroke-width="0.5"/>
<path d="M197.65 250.61L195.34 249.5"
fill="none" stroke="black" stroke-width="0.5"/>
<path d="M195.34 249.5L193.22 248.05"
fill="none" stroke="black" stroke-width="0.5"/>
<path d="M193.22 248.05L191.34 246.31"
fill="none" stroke="black" stroke-width="0.5"/>
<path d="M191.34 246.31L189.75 244.31"
fill="none" stroke="black" stroke-width="0.5"/>
<path d="M189.75 244.31L188.46 242.08"
fill="none" stroke="black" stroke-width="0.5"/>
<path d="M188.46 242.08L187.53 239.7"
fill="none" stroke="black" stroke-width="0.5"/>
<path d="M187.53 239.7L186.96 237.2"
fill="none" stroke="black" stroke-width="0.5"/>
<path d="M186.96 237.2L186.76 234.64"
fill="none" stroke="black" stroke-width="0.5"/>
<path d="M186.76 234.64L186.96 232.08"
fill="none" stroke="black" stroke-width="0.5"/>
<path d="M186.96 232.08L187.53 229.58"
fill="none" stroke="black" stroke-width="0.5"/>
<path d="M187.53 229.58L188.46 227.2"
fill="none" stroke="black" stroke-width="0.5"/>
<path d="M188.46 227.2L189.75 224.98"
fill="none" stroke="black" stroke-width="0.5"/>
<path d="M189.75 224.98L191.34 222.97"
fill="none" stroke="black" stroke-width="0.5"/>
<path d="M191.34 222.97L193.22 221.23"
fill="none" stroke="black" stroke-width="0.5"/>
<path d="M193.22 221.23L195.34 219.78"
fill="none" stroke="black" stroke-width="0.5"/>
<path d="M195.34 219.78L197.65 218.67"
fill="none" stroke="black" stroke-width="0.5"/>
<path d="M197.65 218.67L200.1 217.91"
fill="none" stroke="black" stroke-width="0.5"/>
<path d="M200.1 217.91L202.64 217.53"
fill="none" stroke="black" stroke-width="0.5"/>
<path d="M202.64 217.53L205.2 217.53"
fill="none" stroke="black" stroke-width="0.5"/>
<path d="M205.2 217.53L207.74 217.91"
fill="none" stroke="black" stroke-width="0.5"/>
<path d="M207.74 217.91L210.19 218.67"
fill="none" stroke="black" stroke-width="0.5"/>
<path d="M210.19 218.67L212.5 219.78"
fill="none" stroke="black" stroke-width="0.5"/>
<path d="M212.5 219.78L214.62 221.23"
fill="none" stroke="black" stroke-width="0.5"/>
<path d="M214.62 221.23L216.5 222.97"
fill="none" stroke="black" stroke-width="0.5"/>
<path d="M216.5 222.97L218.1 224.98"
fill="none" stroke="black" stroke-width="0.5"/>
<path d="M218.1 224.98L219.38 227.2"
fill="none" stroke="black" stroke-width="0.5"/>
<path d="M219.38 227.2L220.32 229.58"
fill="none" stroke="black" stroke-width="0.5"/>
<path d="M220.32 229.58L220.89 232.08"
fill="none" stroke="black" stroke-width="0.5"/>
<path d="M220.89 232.08L221.08 234.64"
fill="none" stroke="black" stroke-width="0.5"/>
</svg>
