<?xml version="1.0" encoding="UTF-8"?>
<svg xmlns="http://www.w3.org/2000/svg" width="800.000" height="600.000" viewBox="0.0 0.0 800.000 600.000" version="1.1">
  <desc>Produce by Acme CAD Converter</desc>
<path d="M395.52 300L241.43 313.07"
fill="none" stroke="black" stroke-width="0.5"/>
<path d="M241.43 286.93L395.52 300"
fill="none" stroke="black" stroke-width="0.5"/>
<path d="M 224.06 268.03 A 18.975 18.975 0 0 0 241.43 286.93"
fill="none" stroke="black" stroke-width="0.5"/>
<path d="M224.06 153.49L224.06 268.03Z"
fill="none" stroke="black" stroke-width="0.5"/>
<path d="M 243.04 134.52 A 18.975 18.975 0 0 0 224.06 153.49"
fill="none" stroke="black" stroke-width="0.5"/>
<path d="M578.07 134.52L243.04 134.52"
fill="none" stroke="black" stroke-width="0.5"/>
<path d="M 597.04 153.49 A 18.975 18.975 0 0 0 578.07 134.52"
fill="none" stroke="black" stroke-width="0.5"/>
<path d="M597.04 437.66L597.04 153.49Z"
fill="none" stroke="black" stroke-width="0.5"/>
<path d="M 578.07 456.64 A 18.975 18.975 0 0 0 597.04 437.66"
fill="none" stroke="black" stroke-width="0.5"/>
<path d="M243.04 456.64L578.07 456.64"
fill="none" stroke="black" stroke-width="0.5"/>
<path d="M 224.06 437.66 A 18.975 18.975 0 0 0 243.04 456.64"
fill="none" stroke="black" stroke-width="0.5"/>
<path d="M224.06 331.97L224.06 437.66Z"
fill="none" stroke="black" stroke-width="0.5"/>
<path d="M 241.43 313.07 A 18.975 18.975 0 0 0 224.06 331.97"
fill="none" stroke="black" stroke-width="0.5"/>
<path d="M162.81 5.88L162.81 34.35Z"
fill="none" stroke="black" stroke-width="0.5"/>
<path d="M162.81 34.35L105.88 34.35"
fill="none" stroke="black" stroke-width="0.5"/>
<path d="M105.88 34.35L105.88 129.22Z"
fill="none" stroke="black" stroke-width="0.5"/>
<path d="M105.88 129.22L162.81 129.22"
fill="none" stroke="black" stroke-width="0.5"/>
<path d="M162.81 129.22L162.81 470.78Z"
fill="none" stroke="black" stroke-width="0.5"/>
<path d="M162.81 470.78L105.88 470.78"
fill="none" stroke="black" stroke-width="0.5"/>
<path d="M105.88 470.78L105.88 565.65Z"
fill="none" stroke="black" stroke-width="0.5"/>
<path d="M105.88 565.65L162.81 565.65"
fill="none" stroke="black" stroke-width="0.5"/>
<path d="M162.81 565.65L162.81 594.12Z"
fill="none" stroke="black" stroke-width="0.5"/>
<path d="M162.81 594.12L637.19 594.12"
fill="none" stroke="black" stroke-width="0.5"/>
<path d="M637.19 594.12L637.19 565.65Z"
fill="none" stroke="black" stroke-width="0.5"/>
<path d="M637.19 565.65L694.12 565.65"
fill="none" stroke="black" stroke-width="0.5"/>
<path d="M694.12 565.65L694.12 470.78Z"
fill="none" stroke="black" stroke-width="0.5"/>
<path d="M694.12 470.78L637.19 470.78"
fill="none" stroke="black" stroke-width="0.5"/>
<path d="M637.19 470.78L637.19 129.22Z"
fill="none" stroke="black" stroke-width="0.5"/>
<path d="M637.19 129.22L694.12 129.22"
fill="none" stroke="black" stroke-width="0.5"/>
<path d="M694.12 129.22L694.12 34.35Z"
fill="none" stroke="black" stroke-width="0.5"/>
<path d="M694.12 34.35L637.19 34.35"
fill="none" stroke="black" stroke-width="0.5"/>
<path d="M637.19 34.35L637.19 5.88Z"
fill="none" stroke="black" stroke-width="0.5"/>
<path d="M637.19 5.88L162.81 5.88"
fill="none" stroke="black" stroke-width="0.5"/>
</svg>
