<?xml version="1.0" encoding="UTF-8"?>
<svg xmlns="http://www.w3.org/2000/svg" width="800.000" height="600.000" viewBox="0.0 0.0 800.000 600.000" version="1.1">
  <desc>Produce by Acme CAD Converter</desc>
<path d="M474.66 578.3L474.66 594.12Z"
fill="none" stroke="black" stroke-width="0.5"/>
<path d="M526.07 578.3L474.66 578.3"
fill="none" stroke="black" stroke-width="0.5"/>
<path d="M526.07 594.12L526.07 578.3Z"
fill="none" stroke="black" stroke-width="0.5"/>
<path d="M526.07 594.12L622.44 594.12"
fill="none" stroke="black" stroke-width="0.5"/>
<path d="M 622.44 594.12 A 81.562 81.562 0 0 0 694.71 474.74"
fill="none" stroke="black" stroke-width="0.5"/>
<path d="M694.71 474.74L472.27 49.63"
fill="none" stroke="black" stroke-width="0.5"/>
<path d="M 472.27 49.63 A 81.562 81.562 0 0 0 327.73 49.63"
fill="none" stroke="black" stroke-width="0.5"/>
<path d="M327.73 49.63L105.29 474.74"
fill="none" stroke="black" stroke-width="0.5"/>
<path d="M 105.29 474.74 A 81.562 81.562 0 0 0 177.56 594.12"
fill="none" stroke="black" stroke-width="0.5"/>
<path d="M177.56 594.12L247.27 594.12"
fill="none" stroke="black" stroke-width="0.5"/>
<path d="M247.27 578.3L247.27 594.12Z"
fill="none" stroke="black" stroke-width="0.5"/>
<path d="M298.68 578.3L247.27 578.3"
fill="none" stroke="black" stroke-width="0.5"/>
<path d="M298.68 594.12L298.68 578.3Z"
fill="none" stroke="black" stroke-width="0.5"/>
<path d="M298.68 594.12L474.66 594.12"
fill="none" stroke="black" stroke-width="0.5"/>
<path d="M615.86 392.73L615.66 395.19"
fill="none" stroke="black" stroke-width="0.5"/>
<path d="M615.66 395.19L615.07 397.59"
fill="none" stroke="black" stroke-width="0.5"/>
<path d="M615.07 397.59L614.11 399.86"
fill="none" stroke="black" stroke-width="0.5"/>
<path d="M614.11 399.86L612.79 401.94"
fill="none" stroke="black" stroke-width="0.5"/>
<path d="M612.79 401.94L611.15 403.79"
fill="none" stroke="black" stroke-width="0.5"/>
<path d="M611.15 403.79L609.24 405.35"
fill="none" stroke="black" stroke-width="0.5"/>
<path d="M609.24 405.35L607.11 406.58"
fill="none" stroke="black" stroke-width="0.5"/>
<path d="M607.11 406.58L604.8 407.45"
fill="none" stroke="black" stroke-width="0.5"/>
<path d="M604.8 407.45L602.38 407.95"
fill="none" stroke="black" stroke-width="0.5"/>
<path d="M602.38 407.95L599.92 408.05"
fill="none" stroke="black" stroke-width="0.5"/>
<path d="M599.92 408.05L597.47 407.75"
fill="none" stroke="black" stroke-width="0.5"/>
<path d="M597.47 407.75L595.1 407.06"
fill="none" stroke="black" stroke-width="0.5"/>
<path d="M595.1 407.06L592.88 406.01"
fill="none" stroke="black" stroke-width="0.5"/>
<path d="M592.88 406.01L590.85 404.6"
fill="none" stroke="black" stroke-width="0.5"/>
<path d="M590.85 404.6L589.07 402.9"
fill="none" stroke="black" stroke-width="0.5"/>
<path d="M589.07 402.9L587.59 400.92"
fill="none" stroke="black" stroke-width="0.5"/>
<path d="M587.59 400.92L586.44 398.74"
fill="none" stroke="black" stroke-width="0.5"/>
<path d="M586.44 398.74L585.66 396.4"
fill="none" stroke="black" stroke-width="0.5"/>
<path d="M585.66 396.4L585.26 393.97"
fill="none" stroke="black" stroke-width="0.5"/>
<path d="M585.26 393.97L585.26 391.5Z"
fill="none" stroke="black" stroke-width="0.5"/>
<path d="M585.26 391.5L585.66 389.07"
fill="none" stroke="black" stroke-width="0.5"/>
<path d="M585.66 389.07L586.44 386.73"
fill="none" stroke="black" stroke-width="0.5"/>
<path d="M586.44 386.73L587.59 384.54"
fill="none" stroke="black" stroke-width="0.5"/>
<path d="M587.59 384.54L589.07 382.57"
fill="none" stroke="black" stroke-width="0.5"/>
<path d="M589.07 382.57L590.85 380.86"
fill="none" stroke="black" stroke-width="0.5"/>
<path d="M590.85 380.86L592.88 379.46"
fill="none" stroke="black" stroke-width="0.5"/>
<path d="M592.88 379.46L595.1 378.41"
fill="none" stroke="black" stroke-width="0.5"/>
<path d="M595.1 378.41L597.47 377.72"
fill="none" stroke="black" stroke-width="0.5"/>
<path d="M597.47 377.72L599.92 377.42"
fill="none" stroke="black" stroke-width="0.5"/>
<path d="M599.92 377.42L602.38 377.52"
fill="none" stroke="black" stroke-width="0.5"/>
<path d="M602.38 377.52L604.8 378.02"
fill="none" stroke="black" stroke-width="0.5"/>
<path d="M604.8 378.02L607.11 378.89"
fill="none" stroke="black" stroke-width="0.5"/>
<path d="M607.11 378.89L609.24 380.12"
fill="none" stroke="black" stroke-width="0.5"/>
<path d="M609.24 380.12L611.15 381.68"
fill="none" stroke="black" stroke-width="0.5"/>
<path d="M611.15 381.68L612.79 383.53"
fill="none" stroke="black" stroke-width="0.5"/>
<path d="M612.79 383.53L614.11 385.61"
fill="none" stroke="black" stroke-width="0.5"/>
<path d="M614.11 385.61L615.07 387.88"
fill="none" stroke="black" stroke-width="0.5"/>
<path d="M615.07 387.88L615.66 390.28"
fill="none" stroke="black" stroke-width="0.5"/>
<path d="M615.66 390.28L615.86 392.73"
fill="none" stroke="black" stroke-width="0.5"/>
<path d="M282.42 542.91L517.58 542.91"
fill="none" stroke="black" stroke-width="0.5"/>
<path d="M 263.49 534.08 A 24.716 24.716 0 0 0 282.42 542.91"
fill="none" stroke="black" stroke-width="0.5"/>
<path d="M214.79 476.05L263.49 534.08"
fill="none" stroke="black" stroke-width="0.5"/>
<path d="M 233.72 435.44 A 24.716 24.716 0 0 0 214.79 476.05"
fill="none" stroke="black" stroke-width="0.5"/>
<path d="M566.28 435.44L233.72 435.44"
fill="none" stroke="black" stroke-width="0.5"/>
<path d="M 585.21 476.05 A 24.716 24.716 0 0 0 566.28 435.44"
fill="none" stroke="black" stroke-width="0.5"/>
<path d="M536.51 534.08L585.21 476.05"
fill="none" stroke="black" stroke-width="0.5"/>
<path d="M 517.58 542.91 A 24.716 24.716 0 0 0 536.51 534.08"
fill="none" stroke="black" stroke-width="0.5"/>
<path d="M259.55 362.81L540.45 362.81"
fill="none" stroke="black" stroke-width="0.5"/>
<path d="M 237.65 326.64 A 24.716 24.716 0 0 0 259.55 362.81"
fill="none" stroke="black" stroke-width="0.5"/>
<path d="M259.79 284.33L237.65 326.64"
fill="none" stroke="black" stroke-width="0.5"/>
<path d="M 316.72 249.86 A 64.261 64.261 0 0 0 259.79 284.33"
fill="none" stroke="black" stroke-width="0.5"/>
<path d="M483.28 249.86L316.72 249.86"
fill="none" stroke="black" stroke-width="0.5"/>
<path d="M 540.21 284.33 A 64.261 64.261 0 0 0 483.28 249.86"
fill="none" stroke="black" stroke-width="0.5"/>
<path d="M562.35 326.64L540.21 284.33"
fill="none" stroke="black" stroke-width="0.5"/>
<path d="M 540.45 362.81 A 24.716 24.716 0 0 0 562.35 326.64"
fill="none" stroke="black" stroke-width="0.5"/>
<path d="M642.21 563.59L642.21 512.56Z"
fill="none" stroke="black" stroke-width="0.5"/>
<path d="M 602.67 563.59 A 19.773 19.773 0 0 0 642.21 563.59"
fill="none" stroke="black" stroke-width="0.5"/>
<path d="M602.67 512.56L602.67 563.59Z"
fill="none" stroke="black" stroke-width="0.5"/>
<path d="M 642.21 512.56 A 19.773 19.773 0 0 0 602.67 512.56"
fill="none" stroke="black" stroke-width="0.5"/>
<path d="M419.77 99.66L419.77 50.22Z"
fill="none" stroke="black" stroke-width="0.5"/>
<path d="M 380.23 99.66 A 19.773 19.773 0 0 0 419.77 99.66"
fill="none" stroke="black" stroke-width="0.5"/>
<path d="M380.23 50.22L380.23 99.66Z"
fill="none" stroke="black" stroke-width="0.5"/>
<path d="M 419.77 50.22 A 19.773 19.773 0 0 0 380.23 50.22"
fill="none" stroke="black" stroke-width="0.5"/>
<path d="M157.79 512.56L157.79 563.59Z"
fill="none" stroke="black" stroke-width="0.5"/>
<path d="M 197.33 512.56 A 19.773 19.773 0 0 0 157.79 512.56"
fill="none" stroke="black" stroke-width="0.5"/>
<path d="M197.33 563.59L197.33 512.56Z"
fill="none" stroke="black" stroke-width="0.5"/>
<path d="M 157.79 563.59 A 19.773 19.773 0 0 0 197.33 563.59"
fill="none" stroke="black" stroke-width="0.5"/>
<path d="M228.82 392.73L228.62 395.19"
fill="none" stroke="black" stroke-width="0.5"/>
<path d="M228.62 395.19L228.03 397.59"
fill="none" stroke="black" stroke-width="0.5"/>
<path d="M228.03 397.59L227.06 399.86"
fill="none" stroke="black" stroke-width="0.5"/>
<path d="M227.06 399.86L225.74 401.94"
fill="none" stroke="black" stroke-width="0.5"/>
<path d="M225.74 401.94L224.11 403.79"
fill="none" stroke="black" stroke-width="0.5"/>
<path d="M224.11 403.79L222.2 405.35"
fill="none" stroke="black" stroke-width="0.5"/>
<path d="M222.2 405.35L220.06 406.58"
fill="none" stroke="black" stroke-width="0.5"/>
<path d="M220.06 406.58L217.76 407.45"
fill="none" stroke="black" stroke-width="0.5"/>
<path d="M217.76 407.45L215.34 407.95"
fill="none" stroke="black" stroke-width="0.5"/>
<path d="M215.34 407.95L212.88 408.05"
fill="none" stroke="black" stroke-width="0.5"/>
<path d="M212.88 408.05L210.43 407.75"
fill="none" stroke="black" stroke-width="0.5"/>
<path d="M210.43 407.75L208.06 407.06"
fill="none" stroke="black" stroke-width="0.5"/>
<path d="M208.06 407.06L205.83 406.01"
fill="none" stroke="black" stroke-width="0.5"/>
<path d="M205.83 406.01L203.8 404.6"
fill="none" stroke="black" stroke-width="0.5"/>
<path d="M203.8 404.6L202.02 402.9"
fill="none" stroke="black" stroke-width="0.5"/>
<path d="M202.02 402.9L200.54 400.92"
fill="none" stroke="black" stroke-width="0.5"/>
<path d="M200.54 400.92L199.39 398.74"
fill="none" stroke="black" stroke-width="0.5"/>
<path d="M199.39 398.74L198.61 396.4"
fill="none" stroke="black" stroke-width="0.5"/>
<path d="M198.61 396.4L198.22 393.97"
fill="none" stroke="black" stroke-width="0.5"/>
<path d="M198.22 393.97L198.22 391.5Z"
fill="none" stroke="black" stroke-width="0.5"/>
<path d="M198.22 391.5L198.61 389.07"
fill="none" stroke="black" stroke-width="0.5"/>
<path d="M198.61 389.07L199.39 386.73"
fill="none" stroke="black" stroke-width="0.5"/>
<path d="M199.39 386.73L200.54 384.54"
fill="none" stroke="black" stroke-width="0.5"/>
<path d="M200.54 384.54L202.02 382.57"
fill="none" stroke="black" stroke-width="0.5"/>
<path d="M202.02 382.57L203.8 380.86"
fill="none" stroke="black" stroke-width="0.5"/>
<path d="M203.8 380.86L205.83 379.46"
fill="none" stroke="black" stroke-width="0.5"/>
<path d="M205.83 379.46L208.06 378.41"
fill="none" stroke="black" stroke-width="0.5"/>
<path d="M208.06 378.41L210.43 377.72"
fill="none" stroke="black" stroke-width="0.5"/>
<path d="M210.43 377.72L212.88 377.42"
fill="none" stroke="black" stroke-width="0.5"/>
<path d="M212.88 377.42L215.34 377.52"
fill="none" stroke="black" stroke-width="0.5"/>
<path d="M215.34 377.52L217.76 378.02"
fill="none" stroke="black" stroke-width="0.5"/>
<path d="M217.76 378.02L220.06 378.89"
fill="none" stroke="black" stroke-width="0.5"/>
<path d="M220.06 378.89L222.2 380.12"
fill="none" stroke="black" stroke-width="0.5"/>
<path d="M222.2 380.12L224.11 381.68"
fill="none" stroke="black" stroke-width="0.5"/>
<path d="M224.11 381.68L225.74 383.53"
fill="none" stroke="black" stroke-width="0.5"/>
<path d="M225.74 383.53L227.06 385.61"
fill="none" stroke="black" stroke-width="0.5"/>
<path d="M227.06 385.61L228.03 387.88"
fill="none" stroke="black" stroke-width="0.5"/>
<path d="M228.03 387.88L228.62 390.28"
fill="none" stroke="black" stroke-width="0.5"/>
<path d="M228.62 390.28L228.82 392.73"
fill="none" stroke="black" stroke-width="0.5"/>
</svg>
